<?xml version="1.0" encoding="UTF-8"?>
<svg xmlns="http://www.w3.org/2000/svg" xmlns:xlink="http://www.w3.org/1999/xlink" width="1240pt" height="300pt" viewBox="0 0 1240 300" version="1.1">
<g id="surface1666">
<rect x="0" y="0" width="1240" height="300" style="fill:rgb(90%,90%,90%);fill-opacity:1;stroke:none;"/>
<path style="fill:none;stroke-width:5;stroke-linecap:butt;stroke-linejoin:miter;stroke:rgb(100%,0%,0%);stroke-opacity:1;stroke-miterlimit:10;" d="M 620 270 L 810 270 L 810 70 L 620 70 Z M 620 270 "/>
<path style="fill-rule:nonzero;fill:rgb(53%,27%,7%);fill-opacity:1;stroke-width:1;stroke-linecap:butt;stroke-linejoin:miter;stroke:rgb(0%,0%,0%);stroke-opacity:1;stroke-miterlimit:10;" d="M 166 170 C 166 181.597656 156.597656 191 145 191 C 133.402344 191 124 181.597656 124 170 C 124 158.402344 133.402344 149 145 149 C 156.597656 149 166 158.402344 166 170 "/>
<path style="fill-rule:nonzero;fill:rgb(67%,100%,18%);fill-opacity:1;stroke-width:1;stroke-linecap:butt;stroke-linejoin:miter;stroke:rgb(0%,0%,0%);stroke-opacity:1;stroke-miterlimit:10;" d="M 345.5 170 C 345.5 175.800781 340.800781 180.5 335 180.5 C 329.199219 180.5 324.5 175.800781 324.5 170 C 324.5 164.199219 329.199219 159.5 335 159.5 C 340.800781 159.5 345.5 164.199219 345.5 170 "/>
<path style="fill-rule:nonzero;fill:rgb(67%,100%,18%);fill-opacity:1;stroke-width:1;stroke-linecap:butt;stroke-linejoin:miter;stroke:rgb(0%,0%,0%);stroke-opacity:1;stroke-miterlimit:10;" d="M 440 150 L 501.804688 150 L 526.804688 91.222656 L 551.804688 150 L 613.605469 150 L 563.605469 186.328125 L 580.449219 252.042969 L 526.804688 215.714844 L 473.15625 252.042969 L 498.777344 186.328125 L 440 150 "/>
<path style="fill-rule:nonzero;fill:rgb(53%,27%,7%);fill-opacity:1;stroke-width:1;stroke-linecap:butt;stroke-linejoin:miter;stroke:rgb(0%,0%,0%);stroke-opacity:1;stroke-miterlimit:10;" d="M 630 150 L 685.625 150 L 708.125 97.097656 L 730.625 150 L 786.246094 150 L 741.246094 182.695313 L 756.40625 241.839844 L 708.125 209.144531 L 659.839844 241.839844 L 682.902344 182.695313 L 630 150 "/>
<path style="fill-rule:nonzero;fill:rgb(67%,100%,18%);fill-opacity:1;stroke-width:1;stroke-linecap:butt;stroke-linejoin:miter;stroke:rgb(0%,0%,0%);stroke-opacity:1;stroke-miterlimit:10;" d="M 845 110 L 965 110 L 965 230 L 845 230 Z M 845 110 "/>
<path style="fill-rule:nonzero;fill:rgb(53%,27%,7%);fill-opacity:1;stroke-width:1;stroke-linecap:butt;stroke-linejoin:miter;stroke:rgb(0%,0%,0%);stroke-opacity:1;stroke-miterlimit:10;" d="M 1079 152 L 1115 152 L 1115 188 L 1079 188 Z M 1079 152 "/>
</g>
</svg>
