<?xml version="1.0" encoding="UTF-8"?>
<svg xmlns="http://www.w3.org/2000/svg" xmlns:xlink="http://www.w3.org/1999/xlink" width="1240pt" height="300pt" viewBox="0 0 1240 300" version="1.1">
<g id="surface961">
<rect x="0" y="0" width="1240" height="300" style="fill:rgb(90%,90%,90%);fill-opacity:1;stroke:none;"/>
<path style="fill:none;stroke-width:5;stroke-linecap:butt;stroke-linejoin:miter;stroke:rgb(100%,0%,0%);stroke-opacity:1;stroke-miterlimit:10;" d="M 1000 270 L 1190 270 L 1190 70 L 1000 70 Z M 1000 270 "/>
<path style="fill-rule:nonzero;fill:rgb(0%,0%,0%);fill-opacity:1;stroke-width:1;stroke-linecap:butt;stroke-linejoin:miter;stroke:rgb(0%,0%,0%);stroke-opacity:1;stroke-miterlimit:10;" d="M 60 150 L 115.625 150 L 138.125 97.097656 L 160.625 150 L 216.246094 150 L 171.246094 182.695313 L 186.40625 241.839844 L 138.125 209.144531 L 89.839844 241.839844 L 112.902344 182.695313 L 60 150 "/>
<path style="fill-rule:nonzero;fill:rgb(0%,0%,0%);fill-opacity:1;stroke-width:1;stroke-linecap:butt;stroke-linejoin:miter;stroke:rgb(0%,0%,0%);stroke-opacity:1;stroke-miterlimit:10;" d="M 335 170 L 347.359375 170 L 352.359375 158.246094 L 357.359375 170 L 369.722656 170 L 359.722656 177.265625 L 363.089844 190.410156 L 352.359375 183.144531 L 341.632813 190.410156 L 346.753906 177.265625 L 335 170 "/>
<path style="fill-rule:nonzero;fill:rgb(0%,0%,0%);fill-opacity:1;stroke-width:1;stroke-linecap:butt;stroke-linejoin:miter;stroke:rgb(0%,0%,0%);stroke-opacity:1;stroke-miterlimit:10;" d="M 525 154 L 541 170 L 525 186 L 509 170 Z M 525 154 "/>
<path style="fill-rule:nonzero;fill:rgb(0%,0%,0%);fill-opacity:1;stroke-width:1;stroke-linecap:butt;stroke-linejoin:miter;stroke:rgb(0%,0%,0%);stroke-opacity:1;stroke-miterlimit:10;" d="M 715 170 L 721.179688 170 L 723.679688 164.121094 L 726.179688 170 L 732.359375 170 L 727.359375 173.632813 L 729.046875 180.203125 L 723.679688 176.570313 L 718.316406 180.203125 L 720.878906 173.632813 L 715 170 "/>
<path style="fill-rule:nonzero;fill:rgb(0%,0%,0%);fill-opacity:1;stroke-width:1;stroke-linecap:butt;stroke-linejoin:miter;stroke:rgb(0%,0%,0%);stroke-opacity:1;stroke-miterlimit:10;" d="M 905 170 L 911.179688 170 L 913.679688 164.121094 L 916.179688 170 L 922.359375 170 L 917.359375 173.632813 L 919.046875 180.203125 L 913.679688 176.570313 L 908.316406 180.203125 L 910.878906 173.632813 L 905 170 "/>
<path style="fill-rule:nonzero;fill:rgb(90%,65%,0%);fill-opacity:1;stroke-width:1;stroke-linecap:butt;stroke-linejoin:miter;stroke:rgb(0%,0%,0%);stroke-opacity:1;stroke-miterlimit:10;" d="M 1076.667969 170 L 1095.207031 170 L 1102.707031 152.367188 L 1110.207031 170 L 1128.75 170 L 1113.75 180.898438 L 1118.800781 200.613281 L 1102.707031 189.714844 L 1086.613281 200.613281 L 1094.300781 180.898438 L 1076.667969 170 "/>
</g>
</svg>
