<?xml version="1.0" encoding="UTF-8"?>
<svg xmlns="http://www.w3.org/2000/svg" xmlns:xlink="http://www.w3.org/1999/xlink" width="1240pt" height="300pt" viewBox="0 0 1240 300" version="1.1">
<g id="surface1336">
<rect x="0" y="0" width="1240" height="300" style="fill:rgb(90%,90%,90%);fill-opacity:1;stroke:none;"/>
<path style="fill:none;stroke-width:5;stroke-linecap:butt;stroke-linejoin:miter;stroke:rgb(100%,0%,0%);stroke-opacity:1;stroke-miterlimit:10;" d="M 50 270 L 240 270 L 240 70 L 50 70 Z M 50 270 "/>
<path style="fill-rule:nonzero;fill:rgb(67%,100%,18%);fill-opacity:1;stroke-width:1;stroke-linecap:butt;stroke-linejoin:miter;stroke:rgb(0%,0%,0%);stroke-opacity:1;stroke-miterlimit:10;" d="M 145 150 C 145 109.5 77.5 109.5 77.5 150 C 77.5 190.5 145 197.25 145 231 C 145 197.25 212.5 190.5 212.5 150 C 212.5 109.5 145 109.5 145 150 "/>
<path style="fill-rule:nonzero;fill:rgb(90%,65%,0%);fill-opacity:1;stroke-width:1;stroke-linecap:butt;stroke-linejoin:miter;stroke:rgb(0%,0%,0%);stroke-opacity:1;stroke-miterlimit:10;" d="M 335 146 L 359 170 L 335 194 L 311 170 Z M 335 146 "/>
<path style="fill-rule:nonzero;fill:rgb(90%,65%,0%);fill-opacity:1;stroke-width:1;stroke-linecap:butt;stroke-linejoin:miter;stroke:rgb(0%,0%,0%);stroke-opacity:1;stroke-miterlimit:10;" d="M 525 170 C 525 161 510 161 510 170 C 510 179 525 180.5 525 188 C 525 180.5 540 179 540 170 C 540 161 525 161 525 170 "/>
<path style="fill-rule:nonzero;fill:rgb(90%,65%,0%);fill-opacity:1;stroke-width:1;stroke-linecap:butt;stroke-linejoin:miter;stroke:rgb(0%,0%,0%);stroke-opacity:1;stroke-miterlimit:10;" d="M 715 170 C 715 165.5 707.5 165.5 707.5 170 C 707.5 174.5 715 175.25 715 179 C 715 175.25 722.5 174.5 722.5 170 C 722.5 165.5 715 165.5 715 170 "/>
<path style="fill-rule:nonzero;fill:rgb(90%,65%,0%);fill-opacity:1;stroke-width:1;stroke-linecap:butt;stroke-linejoin:miter;stroke:rgb(0%,0%,0%);stroke-opacity:1;stroke-miterlimit:10;" d="M 905 150 C 905 105 830 105 830 150 C 830 195 905 202.5 905 240 C 905 202.5 980 195 980 150 C 980 105 905 105 905 150 "/>
<path style="fill-rule:nonzero;fill:rgb(90%,65%,0%);fill-opacity:1;stroke-width:1;stroke-linecap:butt;stroke-linejoin:miter;stroke:rgb(0%,0%,0%);stroke-opacity:1;stroke-miterlimit:10;" d="M 1095 150 C 1095 105 1020 105 1020 150 C 1020 195 1095 202.5 1095 240 C 1095 202.5 1170 195 1170 150 C 1170 105 1095 105 1095 150 "/>
</g>
</svg>
