<?xml version="1.0" encoding="UTF-8"?>
<svg xmlns="http://www.w3.org/2000/svg" xmlns:xlink="http://www.w3.org/1999/xlink" width="1240pt" height="300pt" viewBox="0 0 1240 300" version="1.1">
<g id="surface1716">
<rect x="0" y="0" width="1240" height="300" style="fill:rgb(90%,90%,90%);fill-opacity:1;stroke:none;"/>
<path style="fill:none;stroke-width:5;stroke-linecap:butt;stroke-linejoin:miter;stroke:rgb(100%,0%,0%);stroke-opacity:1;stroke-miterlimit:10;" d="M 240 270 L 430 270 L 430 70 L 240 70 Z M 240 270 "/>
<path style="fill-rule:nonzero;fill:rgb(35%,70%,90%);fill-opacity:1;stroke-width:1;stroke-linecap:butt;stroke-linejoin:miter;stroke:rgb(0%,0%,0%);stroke-opacity:1;stroke-miterlimit:10;" d="M 145 170 L 157.359375 170 L 162.359375 158.246094 L 167.359375 170 L 179.722656 170 L 169.722656 177.265625 L 173.089844 190.410156 L 162.359375 183.144531 L 151.632813 190.410156 L 156.753906 177.265625 L 145 170 "/>
<path style="fill-rule:nonzero;fill:rgb(35%,70%,90%);fill-opacity:1;stroke-width:1;stroke-linecap:butt;stroke-linejoin:miter;stroke:rgb(0%,0%,0%);stroke-opacity:1;stroke-miterlimit:10;" d="M 250 150 L 311.804688 150 L 336.804688 91.222656 L 361.804688 150 L 423.605469 150 L 373.605469 186.328125 L 390.449219 252.042969 L 336.804688 215.714844 L 283.15625 252.042969 L 308.777344 186.328125 L 250 150 "/>
<path style="fill-rule:nonzero;fill:rgb(35%,70%,90%);fill-opacity:1;stroke-width:1;stroke-linecap:butt;stroke-linejoin:miter;stroke:rgb(0%,0%,0%);stroke-opacity:1;stroke-miterlimit:10;" d="M 525 150 C 525 105 450 105 450 150 C 450 195 525 202.5 525 240 C 525 202.5 600 195 600 150 C 600 105 525 105 525 150 "/>
<path style="fill-rule:nonzero;fill:rgb(35%,70%,90%);fill-opacity:1;stroke-width:1;stroke-linecap:butt;stroke-linejoin:miter;stroke:rgb(0%,0%,0%);stroke-opacity:1;stroke-miterlimit:10;" d="M 715 150 C 715 105 640 105 640 150 C 640 195 715 202.5 715 240 C 715 202.5 790 195 790 150 C 790 105 715 105 715 150 "/>
<path style="fill-rule:nonzero;fill:rgb(35%,70%,90%);fill-opacity:1;stroke-width:1;stroke-linecap:butt;stroke-linejoin:miter;stroke:rgb(0%,0%,0%);stroke-opacity:1;stroke-miterlimit:10;" d="M 905 170 C 905 165.5 897.5 165.5 897.5 170 C 897.5 174.5 905 175.25 905 179 C 905 175.25 912.5 174.5 912.5 170 C 912.5 165.5 905 165.5 905 170 "/>
<path style="fill-rule:nonzero;fill:rgb(35%,70%,90%);fill-opacity:1;stroke-width:1;stroke-linecap:butt;stroke-linejoin:miter;stroke:rgb(0%,0%,0%);stroke-opacity:1;stroke-miterlimit:10;" d="M 1095 170 L 1107.359375 170 L 1112.359375 158.246094 L 1117.359375 170 L 1129.722656 170 L 1119.722656 177.265625 L 1123.089844 190.410156 L 1112.359375 183.144531 L 1101.632813 190.410156 L 1106.753906 177.265625 L 1095 170 "/>
</g>
</svg>
