<?xml version="1.0" encoding="UTF-8"?>
<svg xmlns="http://www.w3.org/2000/svg" xmlns:xlink="http://www.w3.org/1999/xlink" width="1240pt" height="300pt" viewBox="0 0 1240 300" version="1.1">
<g id="surface1371">
<rect x="0" y="0" width="1240" height="300" style="fill:rgb(90%,90%,90%);fill-opacity:1;stroke:none;"/>
<path style="fill:none;stroke-width:5;stroke-linecap:butt;stroke-linejoin:miter;stroke:rgb(100%,0%,0%);stroke-opacity:1;stroke-miterlimit:10;" d="M 240 270 L 430 270 L 430 70 L 240 70 Z M 240 270 "/>
<path style="fill-rule:nonzero;fill:rgb(35%,70%,90%);fill-opacity:1;stroke-width:1;stroke-linecap:butt;stroke-linejoin:miter;stroke:rgb(0%,0%,0%);stroke-opacity:1;stroke-miterlimit:10;" d="M 145 154 L 161 170 L 145 186 L 129 170 Z M 145 154 "/>
<path style="fill-rule:nonzero;fill:rgb(35%,70%,90%);fill-opacity:1;stroke-width:1;stroke-linecap:butt;stroke-linejoin:miter;stroke:rgb(0%,0%,0%);stroke-opacity:1;stroke-miterlimit:10;" d="M 250 150 L 305.625 150 L 328.125 97.097656 L 350.625 150 L 406.246094 150 L 361.246094 182.695313 L 376.40625 241.839844 L 328.125 209.144531 L 279.839844 241.839844 L 302.902344 182.695313 L 250 150 "/>
<path style="fill-rule:nonzero;fill:rgb(55%,14%,14%);fill-opacity:1;stroke-width:1;stroke-linecap:butt;stroke-linejoin:miter;stroke:rgb(0%,0%,0%);stroke-opacity:1;stroke-miterlimit:10;" d="M 525 170 L 531.179688 170 L 533.679688 164.121094 L 536.179688 170 L 542.359375 170 L 537.359375 173.632813 L 539.046875 180.203125 L 533.679688 176.570313 L 528.316406 180.203125 L 530.878906 173.632813 L 525 170 "/>
<path style="fill-rule:nonzero;fill:rgb(55%,14%,14%);fill-opacity:1;stroke-width:1;stroke-linecap:butt;stroke-linejoin:miter;stroke:rgb(0%,0%,0%);stroke-opacity:1;stroke-miterlimit:10;" d="M 630 150 L 685.625 150 L 708.125 97.097656 L 730.625 150 L 786.246094 150 L 741.246094 182.695313 L 756.40625 241.839844 L 708.125 209.144531 L 659.839844 241.839844 L 682.902344 182.695313 L 630 150 "/>
<path style="fill-rule:nonzero;fill:rgb(55%,14%,14%);fill-opacity:1;stroke-width:1;stroke-linecap:butt;stroke-linejoin:miter;stroke:rgb(0%,0%,0%);stroke-opacity:1;stroke-miterlimit:10;" d="M 975 170 C 975 208.660156 943.660156 240 905 240 C 866.339844 240 835 208.660156 835 170 C 835 131.339844 866.339844 100 905 100 C 943.660156 100 975 131.339844 975 170 "/>
<path style="fill-rule:nonzero;fill:rgb(35%,70%,90%);fill-opacity:1;stroke-width:1;stroke-linecap:butt;stroke-linejoin:miter;stroke:rgb(0%,0%,0%);stroke-opacity:1;stroke-miterlimit:10;" d="M 1116 170 C 1116 181.597656 1106.597656 191 1095 191 C 1083.402344 191 1074 181.597656 1074 170 C 1074 158.402344 1083.402344 149 1095 149 C 1106.597656 149 1116 158.402344 1116 170 "/>
</g>
</svg>
