<?xml version="1.0" encoding="UTF-8"?>
<svg xmlns="http://www.w3.org/2000/svg" xmlns:xlink="http://www.w3.org/1999/xlink" width="1240pt" height="300pt" viewBox="0 0 1240 300" version="1.1">
<g id="surface576">
<rect x="0" y="0" width="1240" height="300" style="fill:rgb(90%,90%,90%);fill-opacity:1;stroke:none;"/>
<path style="fill:none;stroke-width:5;stroke-linecap:butt;stroke-linejoin:miter;stroke:rgb(100%,0%,0%);stroke-opacity:1;stroke-miterlimit:10;" d="M 620 270 L 810 270 L 810 70 L 620 70 Z M 620 270 "/>
<path style="fill-rule:nonzero;fill:rgb(0%,0%,0%);fill-opacity:1;stroke-width:1;stroke-linecap:butt;stroke-linejoin:miter;stroke:rgb(0%,0%,0%);stroke-opacity:1;stroke-miterlimit:10;" d="M 145 141.027344 L 111.25 199.484375 L 178.75 199.484375 L 145 141.027344 "/>
<path style="fill-rule:nonzero;fill:rgb(0%,0%,0%);fill-opacity:1;stroke-width:1;stroke-linecap:butt;stroke-linejoin:miter;stroke:rgb(0%,0%,0%);stroke-opacity:1;stroke-miterlimit:10;" d="M 335 93.398438 L 260 223.300781 L 410 223.300781 L 335 93.398438 "/>
<path style="fill-rule:nonzero;fill:rgb(0%,0%,0%);fill-opacity:1;stroke-width:1;stroke-linecap:butt;stroke-linejoin:miter;stroke:rgb(0%,0%,0%);stroke-opacity:1;stroke-miterlimit:10;" d="M 525 150 C 525 109.5 457.5 109.5 457.5 150 C 457.5 190.5 525 197.25 525 231 C 525 197.25 592.5 190.5 592.5 150 C 592.5 109.5 525 109.5 525 150 "/>
<path style="fill-rule:nonzero;fill:rgb(55%,51%,53%);fill-opacity:1;stroke-width:1;stroke-linecap:butt;stroke-linejoin:miter;stroke:rgb(0%,0%,0%);stroke-opacity:1;stroke-miterlimit:10;" d="M 785 170 C 785 208.660156 753.660156 240 715 240 C 676.339844 240 645 208.660156 645 170 C 645 131.339844 676.339844 100 715 100 C 753.660156 100 785 131.339844 785 170 "/>
<path style="fill-rule:nonzero;fill:rgb(0%,0%,0%);fill-opacity:1;stroke-width:1;stroke-linecap:butt;stroke-linejoin:miter;stroke:rgb(0%,0%,0%);stroke-opacity:1;stroke-miterlimit:10;" d="M 975 170 C 975 208.660156 943.660156 240 905 240 C 866.339844 240 835 208.660156 835 170 C 835 131.339844 866.339844 100 905 100 C 943.660156 100 975 131.339844 975 170 "/>
<path style="fill-rule:nonzero;fill:rgb(0%,0%,0%);fill-opacity:1;stroke-width:1;stroke-linecap:butt;stroke-linejoin:miter;stroke:rgb(0%,0%,0%);stroke-opacity:1;stroke-miterlimit:10;" d="M 1165 170 C 1165 208.660156 1133.660156 240 1095 240 C 1056.339844 240 1025 208.660156 1025 170 C 1025 131.339844 1056.339844 100 1095 100 C 1133.660156 100 1165 131.339844 1165 170 "/>
</g>
</svg>
