<?xml version="1.0" encoding="UTF-8"?>
<svg xmlns="http://www.w3.org/2000/svg" xmlns:xlink="http://www.w3.org/1999/xlink" width="1240pt" height="300pt" viewBox="0 0 1240 300" version="1.1">
<g id="surface1866">
<rect x="0" y="0" width="1240" height="300" style="fill:rgb(90%,90%,90%);fill-opacity:1;stroke:none;"/>
<path style="fill:none;stroke-width:5;stroke-linecap:butt;stroke-linejoin:miter;stroke:rgb(100%,0%,0%);stroke-opacity:1;stroke-miterlimit:10;" d="M 1000 270 L 1190 270 L 1190 70 L 1000 70 Z M 1000 270 "/>
<path style="fill-rule:nonzero;fill:rgb(53%,27%,7%);fill-opacity:1;stroke-width:1;stroke-linecap:butt;stroke-linejoin:miter;stroke:rgb(0%,0%,0%);stroke-opacity:1;stroke-miterlimit:10;" d="M 215 170 C 215 208.660156 183.660156 240 145 240 C 106.339844 240 75 208.660156 75 170 C 75 131.339844 106.339844 100 145 100 C 183.660156 100 215 131.339844 215 170 "/>
<path style="fill-rule:nonzero;fill:rgb(53%,27%,7%);fill-opacity:1;stroke-width:1;stroke-linecap:butt;stroke-linejoin:miter;stroke:rgb(0%,0%,0%);stroke-opacity:1;stroke-miterlimit:10;" d="M 356 170 C 356 181.597656 346.597656 191 335 191 C 323.402344 191 314 181.597656 314 170 C 314 158.402344 323.402344 149 335 149 C 346.597656 149 356 158.402344 356 170 "/>
<path style="fill-rule:nonzero;fill:rgb(35%,70%,90%);fill-opacity:1;stroke-width:1;stroke-linecap:butt;stroke-linejoin:miter;stroke:rgb(0%,0%,0%);stroke-opacity:1;stroke-miterlimit:10;" d="M 556.5 170 C 556.5 187.398438 542.398438 201.5 525 201.5 C 507.601563 201.5 493.5 187.398438 493.5 170 C 493.5 152.601563 507.601563 138.5 525 138.5 C 542.398438 138.5 556.5 152.601563 556.5 170 "/>
<path style="fill-rule:nonzero;fill:rgb(35%,70%,90%);fill-opacity:1;stroke-width:1;stroke-linecap:butt;stroke-linejoin:miter;stroke:rgb(0%,0%,0%);stroke-opacity:1;stroke-miterlimit:10;" d="M 696.667969 170 L 715.207031 170 L 722.707031 152.367188 L 730.207031 170 L 748.75 170 L 733.75 180.898438 L 738.800781 200.613281 L 722.707031 189.714844 L 706.613281 200.613281 L 714.300781 180.898438 L 696.667969 170 "/>
<path style="fill-rule:nonzero;fill:rgb(53%,27%,7%);fill-opacity:1;stroke-width:1;stroke-linecap:butt;stroke-linejoin:miter;stroke:rgb(0%,0%,0%);stroke-opacity:1;stroke-miterlimit:10;" d="M 820 150 L 875.625 150 L 898.125 97.097656 L 920.625 150 L 976.246094 150 L 931.246094 182.695313 L 946.40625 241.839844 L 898.125 209.144531 L 849.839844 241.839844 L 872.902344 182.695313 L 820 150 "/>
<path style="fill-rule:nonzero;fill:rgb(35%,70%,90%);fill-opacity:1;stroke-width:1;stroke-linecap:butt;stroke-linejoin:miter;stroke:rgb(0%,0%,0%);stroke-opacity:1;stroke-miterlimit:10;" d="M 1095 150 C 1095 105 1020 105 1020 150 C 1020 195 1095 202.5 1095 240 C 1095 202.5 1170 195 1170 150 C 1170 105 1095 105 1095 150 "/>
</g>
</svg>
