<?xml version="1.0" encoding="UTF-8"?>
<svg xmlns="http://www.w3.org/2000/svg" xmlns:xlink="http://www.w3.org/1999/xlink" width="1240pt" height="300pt" viewBox="0 0 1240 300" version="1.1">
<g id="surface1946">
<rect x="0" y="0" width="1240" height="300" style="fill:rgb(90%,90%,90%);fill-opacity:1;stroke:none;"/>
<path style="fill:none;stroke-width:5;stroke-linecap:butt;stroke-linejoin:miter;stroke:rgb(100%,0%,0%);stroke-opacity:1;stroke-miterlimit:10;" d="M 620 270 L 810 270 L 810 70 L 620 70 Z M 620 270 "/>
<path style="fill-rule:nonzero;fill:rgb(55%,51%,53%);fill-opacity:1;stroke-width:1;stroke-linecap:butt;stroke-linejoin:miter;stroke:rgb(0%,0%,0%);stroke-opacity:1;stroke-miterlimit:10;" d="M 176.5 170 C 176.5 187.398438 162.398438 201.5 145 201.5 C 127.601563 201.5 113.5 187.398438 113.5 170 C 113.5 152.601563 127.601563 138.5 145 138.5 C 162.398438 138.5 176.5 152.601563 176.5 170 "/>
<path style="fill-rule:nonzero;fill:rgb(55%,51%,53%);fill-opacity:1;stroke-width:1;stroke-linecap:butt;stroke-linejoin:miter;stroke:rgb(0%,0%,0%);stroke-opacity:1;stroke-miterlimit:10;" d="M 250 150 L 311.804688 150 L 336.804688 91.222656 L 361.804688 150 L 423.605469 150 L 373.605469 186.328125 L 390.449219 252.042969 L 336.804688 215.714844 L 283.15625 252.042969 L 308.777344 186.328125 L 250 150 "/>
<path style="fill-rule:nonzero;fill:rgb(55%,51%,53%);fill-opacity:1;stroke-width:1;stroke-linecap:butt;stroke-linejoin:miter;stroke:rgb(0%,0%,0%);stroke-opacity:1;stroke-miterlimit:10;" d="M 525 170 L 531.179688 170 L 533.679688 164.121094 L 536.179688 170 L 542.359375 170 L 537.359375 173.632813 L 539.046875 180.203125 L 533.679688 176.570313 L 528.316406 180.203125 L 530.878906 173.632813 L 525 170 "/>
<path style="fill-rule:nonzero;fill:rgb(53%,27%,7%);fill-opacity:1;stroke-width:1;stroke-linecap:butt;stroke-linejoin:miter;stroke:rgb(0%,0%,0%);stroke-opacity:1;stroke-miterlimit:10;" d="M 785 170 C 785 208.660156 753.660156 240 715 240 C 676.339844 240 645 208.660156 645 170 C 645 131.339844 676.339844 100 715 100 C 753.660156 100 785 131.339844 785 170 "/>
<path style="fill-rule:nonzero;fill:rgb(67%,100%,18%);fill-opacity:1;stroke-width:1;stroke-linecap:butt;stroke-linejoin:miter;stroke:rgb(0%,0%,0%);stroke-opacity:1;stroke-miterlimit:10;" d="M 915.5 170 C 915.5 175.800781 910.800781 180.5 905 180.5 C 899.199219 180.5 894.5 175.800781 894.5 170 C 894.5 164.199219 899.199219 159.5 905 159.5 C 910.800781 159.5 915.5 164.199219 915.5 170 "/>
<path style="fill-rule:nonzero;fill:rgb(67%,100%,18%);fill-opacity:1;stroke-width:1;stroke-linecap:butt;stroke-linejoin:miter;stroke:rgb(0%,0%,0%);stroke-opacity:1;stroke-miterlimit:10;" d="M 1010 150 L 1071.804688 150 L 1096.804688 91.222656 L 1121.804688 150 L 1183.605469 150 L 1133.605469 186.328125 L 1150.449219 252.042969 L 1096.804688 215.714844 L 1043.15625 252.042969 L 1068.777344 186.328125 L 1010 150 "/>
</g>
</svg>
