<?xml version="1.0" encoding="UTF-8"?>
<svg xmlns="http://www.w3.org/2000/svg" xmlns:xlink="http://www.w3.org/1999/xlink" width="1240pt" height="300pt" viewBox="0 0 1240 300" version="1.1">
<g id="surface286">
<rect x="0" y="0" width="1240" height="300" style="fill:rgb(90%,90%,90%);fill-opacity:1;stroke:none;"/>
<path style="fill:none;stroke-width:5;stroke-linecap:butt;stroke-linejoin:miter;stroke:rgb(100%,0%,0%);stroke-opacity:1;stroke-miterlimit:10;" d="M 810 270 L 1000 270 L 1000 70 L 810 70 Z M 810 270 "/>
<path style="fill-rule:nonzero;fill:rgb(67%,100%,18%);fill-opacity:1;stroke-width:1;stroke-linecap:butt;stroke-linejoin:miter;stroke:rgb(0%,0%,0%);stroke-opacity:1;stroke-miterlimit:10;" d="M 145 170 L 157.359375 170 L 162.359375 158.246094 L 167.359375 170 L 179.722656 170 L 169.722656 177.265625 L 173.089844 190.410156 L 162.359375 183.144531 L 151.632813 190.410156 L 156.753906 177.265625 L 145 170 "/>
<path style="fill-rule:nonzero;fill:rgb(67%,100%,18%);fill-opacity:1;stroke-width:1;stroke-linecap:butt;stroke-linejoin:miter;stroke:rgb(0%,0%,0%);stroke-opacity:1;stroke-miterlimit:10;" d="M 250 150 L 305.625 150 L 328.125 97.097656 L 350.625 150 L 406.246094 150 L 361.246094 182.695313 L 376.40625 241.839844 L 328.125 209.144531 L 279.839844 241.839844 L 302.902344 182.695313 L 250 150 "/>
<path style="fill-rule:nonzero;fill:rgb(67%,100%,18%);fill-opacity:1;stroke-width:1;stroke-linecap:butt;stroke-linejoin:miter;stroke:rgb(0%,0%,0%);stroke-opacity:1;stroke-miterlimit:10;" d="M 525 170 L 531.179688 170 L 533.679688 164.121094 L 536.179688 170 L 542.359375 170 L 537.359375 173.632813 L 539.046875 180.203125 L 533.679688 176.570313 L 528.316406 180.203125 L 530.878906 173.632813 L 525 170 "/>
<path style="fill-rule:nonzero;fill:rgb(67%,100%,18%);fill-opacity:1;stroke-width:1;stroke-linecap:butt;stroke-linejoin:miter;stroke:rgb(0%,0%,0%);stroke-opacity:1;stroke-miterlimit:10;" d="M 630 150 L 691.804688 150 L 716.804688 91.222656 L 741.804688 150 L 803.605469 150 L 753.605469 186.328125 L 770.449219 252.042969 L 716.804688 215.714844 L 663.15625 252.042969 L 688.777344 186.328125 L 630 150 "/>
<path style="fill-rule:nonzero;fill:rgb(0%,0%,0%);fill-opacity:1;stroke-width:1;stroke-linecap:butt;stroke-linejoin:miter;stroke:rgb(0%,0%,0%);stroke-opacity:1;stroke-miterlimit:10;" d="M 820 150 L 875.625 150 L 898.125 97.097656 L 920.625 150 L 976.246094 150 L 931.246094 182.695313 L 946.40625 241.839844 L 898.125 209.144531 L 849.839844 241.839844 L 872.902344 182.695313 L 820 150 "/>
<path style="fill-rule:nonzero;fill:rgb(67%,100%,18%);fill-opacity:1;stroke-width:1;stroke-linecap:butt;stroke-linejoin:miter;stroke:rgb(0%,0%,0%);stroke-opacity:1;stroke-miterlimit:10;" d="M 1095 150 C 1095 105 1020 105 1020 150 C 1020 195 1095 202.5 1095 240 C 1095 202.5 1170 195 1170 150 C 1170 105 1095 105 1095 150 "/>
</g>
</svg>
