<?xml version="1.0" encoding="UTF-8"?>
<svg xmlns="http://www.w3.org/2000/svg" xmlns:xlink="http://www.w3.org/1999/xlink" width="1240pt" height="300pt" viewBox="0 0 1240 300" version="1.1">
<g id="surface1373">
<rect x="0" y="0" width="1240" height="300" style="fill:rgb(90%,90%,90%);fill-opacity:1;stroke:none;"/>
<path style="fill:none;stroke-width:5;stroke-linecap:butt;stroke-linejoin:miter;stroke:rgb(100%,0%,0%);stroke-opacity:1;stroke-miterlimit:10;" d="M 1000 270 L 1190 270 L 1190 70 L 1000 70 Z M 1000 270 "/>
<path style="fill-rule:nonzero;fill:rgb(55%,51%,53%);fill-opacity:1;stroke-width:1;stroke-linecap:butt;stroke-linejoin:miter;stroke:rgb(0%,0%,0%);stroke-opacity:1;stroke-miterlimit:10;" d="M 145 146 L 169 170 L 145 194 L 121 170 Z M 145 146 "/>
<path style="fill-rule:nonzero;fill:rgb(67%,100%,18%);fill-opacity:1;stroke-width:1;stroke-linecap:butt;stroke-linejoin:miter;stroke:rgb(0%,0%,0%);stroke-opacity:1;stroke-miterlimit:10;" d="M 335 146 L 359 170 L 335 194 L 311 170 Z M 335 146 "/>
<path style="fill-rule:nonzero;fill:rgb(55%,51%,53%);fill-opacity:1;stroke-width:1;stroke-linecap:butt;stroke-linejoin:miter;stroke:rgb(0%,0%,0%);stroke-opacity:1;stroke-miterlimit:10;" d="M 525 154 L 541 170 L 525 186 L 509 170 Z M 525 154 "/>
<path style="fill-rule:nonzero;fill:rgb(67%,100%,18%);fill-opacity:1;stroke-width:1;stroke-linecap:butt;stroke-linejoin:miter;stroke:rgb(0%,0%,0%);stroke-opacity:1;stroke-miterlimit:10;" d="M 785 170 C 785 208.660156 753.660156 240 715 240 C 676.339844 240 645 208.660156 645 170 C 645 131.339844 676.339844 100 715 100 C 753.660156 100 785 131.339844 785 170 "/>
<path style="fill-rule:nonzero;fill:rgb(67%,100%,18%);fill-opacity:1;stroke-width:1;stroke-linecap:butt;stroke-linejoin:miter;stroke:rgb(0%,0%,0%);stroke-opacity:1;stroke-miterlimit:10;" d="M 975 170 C 975 208.660156 943.660156 240 905 240 C 866.339844 240 835 208.660156 835 170 C 835 131.339844 866.339844 100 905 100 C 943.660156 100 975 131.339844 975 170 "/>
<path style="fill-rule:nonzero;fill:rgb(55%,51%,53%);fill-opacity:1;stroke-width:1;stroke-linecap:butt;stroke-linejoin:miter;stroke:rgb(0%,0%,0%);stroke-opacity:1;stroke-miterlimit:10;" d="M 1095 150 C 1095 109.5 1027.5 109.5 1027.5 150 C 1027.5 190.5 1095 197.25 1095 231 C 1095 197.25 1162.5 190.5 1162.5 150 C 1162.5 109.5 1095 109.5 1095 150 "/>
</g>
</svg>
