<?xml version="1.0" encoding="UTF-8"?>
<svg xmlns="http://www.w3.org/2000/svg" xmlns:xlink="http://www.w3.org/1999/xlink" width="1240pt" height="300pt" viewBox="0 0 1240 300" version="1.1">
<g id="surface326">
<rect x="0" y="0" width="1240" height="300" style="fill:rgb(90%,90%,90%);fill-opacity:1;stroke:none;"/>
<path style="fill:none;stroke-width:5;stroke-linecap:butt;stroke-linejoin:miter;stroke:rgb(100%,0%,0%);stroke-opacity:1;stroke-miterlimit:10;" d="M 430 270 L 620 270 L 620 70 L 430 70 Z M 430 270 "/>
<path style="fill-rule:nonzero;fill:rgb(53%,27%,7%);fill-opacity:1;stroke-width:1;stroke-linecap:butt;stroke-linejoin:miter;stroke:rgb(0%,0%,0%);stroke-opacity:1;stroke-miterlimit:10;" d="M 145 150 C 145 109.5 77.5 109.5 77.5 150 C 77.5 190.5 145 197.25 145 231 C 145 197.25 212.5 190.5 212.5 150 C 212.5 109.5 145 109.5 145 150 "/>
<path style="fill-rule:nonzero;fill:rgb(53%,27%,7%);fill-opacity:1;stroke-width:1;stroke-linecap:butt;stroke-linejoin:miter;stroke:rgb(0%,0%,0%);stroke-opacity:1;stroke-miterlimit:10;" d="M 335 170 C 335 161 320 161 320 170 C 320 179 335 180.5 335 188 C 335 180.5 350 179 350 170 C 350 161 335 161 335 170 "/>
<path style="fill-rule:nonzero;fill:rgb(53%,27%,7%);fill-opacity:1;stroke-width:1;stroke-linecap:butt;stroke-linejoin:miter;stroke:rgb(0%,0%,0%);stroke-opacity:1;stroke-miterlimit:10;" d="M 440 150 L 495.625 150 L 518.125 97.097656 L 540.625 150 L 596.246094 150 L 551.246094 182.695313 L 566.40625 241.839844 L 518.125 209.144531 L 469.839844 241.839844 L 492.902344 182.695313 L 440 150 "/>
<path style="fill-rule:nonzero;fill:rgb(53%,27%,7%);fill-opacity:1;stroke-width:1;stroke-linecap:butt;stroke-linejoin:miter;stroke:rgb(0%,0%,0%);stroke-opacity:1;stroke-miterlimit:10;" d="M 715 150 C 715 105 640 105 640 150 C 640 195 715 202.5 715 240 C 715 202.5 790 195 790 150 C 790 105 715 105 715 150 "/>
<path style="fill-rule:nonzero;fill:rgb(35%,70%,90%);fill-opacity:1;stroke-width:1;stroke-linecap:butt;stroke-linejoin:miter;stroke:rgb(0%,0%,0%);stroke-opacity:1;stroke-miterlimit:10;" d="M 905 170 L 917.359375 170 L 922.359375 158.246094 L 927.359375 170 L 939.722656 170 L 929.722656 177.265625 L 933.089844 190.410156 L 922.359375 183.144531 L 911.632813 190.410156 L 916.753906 177.265625 L 905 170 "/>
<path style="fill-rule:nonzero;fill:rgb(35%,70%,90%);fill-opacity:1;stroke-width:1;stroke-linecap:butt;stroke-linejoin:miter;stroke:rgb(0%,0%,0%);stroke-opacity:1;stroke-miterlimit:10;" d="M 1095 170 L 1107.359375 170 L 1112.359375 158.246094 L 1117.359375 170 L 1129.722656 170 L 1119.722656 177.265625 L 1123.089844 190.410156 L 1112.359375 183.144531 L 1101.632813 190.410156 L 1106.753906 177.265625 L 1095 170 "/>
</g>
</svg>
