<?xml version="1.0" encoding="UTF-8"?>
<svg xmlns="http://www.w3.org/2000/svg" xmlns:xlink="http://www.w3.org/1999/xlink" width="1240pt" height="300pt" viewBox="0 0 1240 300" version="1.1">
<g id="surface1996">
<rect x="0" y="0" width="1240" height="300" style="fill:rgb(90%,90%,90%);fill-opacity:1;stroke:none;"/>
<path style="fill:none;stroke-width:5;stroke-linecap:butt;stroke-linejoin:miter;stroke:rgb(100%,0%,0%);stroke-opacity:1;stroke-miterlimit:10;" d="M 430 270 L 620 270 L 620 70 L 430 70 Z M 430 270 "/>
<path style="fill-rule:nonzero;fill:rgb(90%,65%,0%);fill-opacity:1;stroke-width:1;stroke-linecap:butt;stroke-linejoin:miter;stroke:rgb(0%,0%,0%);stroke-opacity:1;stroke-miterlimit:10;" d="M 176.5 170 C 176.5 187.398438 162.398438 201.5 145 201.5 C 127.601563 201.5 113.5 187.398438 113.5 170 C 113.5 152.601563 127.601563 138.5 145 138.5 C 162.398438 138.5 176.5 152.601563 176.5 170 "/>
<path style="fill-rule:nonzero;fill:rgb(35%,70%,90%);fill-opacity:1;stroke-width:1;stroke-linecap:butt;stroke-linejoin:miter;stroke:rgb(0%,0%,0%);stroke-opacity:1;stroke-miterlimit:10;" d="M 301 143 L 355 143 L 355 197 L 301 197 Z M 301 143 "/>
<path style="fill-rule:nonzero;fill:rgb(35%,70%,90%);fill-opacity:1;stroke-width:1;stroke-linecap:butt;stroke-linejoin:miter;stroke:rgb(0%,0%,0%);stroke-opacity:1;stroke-miterlimit:10;" d="M 465 110 L 585 110 L 585 230 L 465 230 Z M 465 110 "/>
<path style="fill-rule:nonzero;fill:rgb(90%,65%,0%);fill-opacity:1;stroke-width:1;stroke-linecap:butt;stroke-linejoin:miter;stroke:rgb(0%,0%,0%);stroke-opacity:1;stroke-miterlimit:10;" d="M 630 150 L 691.804688 150 L 716.804688 91.222656 L 741.804688 150 L 803.605469 150 L 753.605469 186.328125 L 770.449219 252.042969 L 716.804688 215.714844 L 663.15625 252.042969 L 688.777344 186.328125 L 630 150 "/>
<path style="fill-rule:nonzero;fill:rgb(35%,70%,90%);fill-opacity:1;stroke-width:1;stroke-linecap:butt;stroke-linejoin:miter;stroke:rgb(0%,0%,0%);stroke-opacity:1;stroke-miterlimit:10;" d="M 886.667969 170 L 905.207031 170 L 912.707031 152.367188 L 920.207031 170 L 938.75 170 L 923.75 180.898438 L 928.800781 200.613281 L 912.707031 189.714844 L 896.613281 200.613281 L 904.300781 180.898438 L 886.667969 170 "/>
<path style="fill-rule:nonzero;fill:rgb(90%,65%,0%);fill-opacity:1;stroke-width:1;stroke-linecap:butt;stroke-linejoin:miter;stroke:rgb(0%,0%,0%);stroke-opacity:1;stroke-miterlimit:10;" d="M 1010 150 L 1071.804688 150 L 1096.804688 91.222656 L 1121.804688 150 L 1183.605469 150 L 1133.605469 186.328125 L 1150.449219 252.042969 L 1096.804688 215.714844 L 1043.15625 252.042969 L 1068.777344 186.328125 L 1010 150 "/>
</g>
</svg>
