<?xml version="1.0" encoding="UTF-8"?>
<svg xmlns="http://www.w3.org/2000/svg" xmlns:xlink="http://www.w3.org/1999/xlink" width="1240pt" height="300pt" viewBox="0 0 1240 300" version="1.1">
<g id="surface125">
<rect x="0" y="0" width="1240" height="300" style="fill:rgb(90%,90%,90%);fill-opacity:1;stroke:none;"/>
<path style="fill:none;stroke-width:5;stroke-linecap:butt;stroke-linejoin:miter;stroke:rgb(100%,0%,0%);stroke-opacity:1;stroke-miterlimit:10;" d="M 50 270 L 240 270 L 240 70 L 50 70 Z M 50 270 "/>
<path style="fill-rule:nonzero;fill:rgb(55%,14%,14%);fill-opacity:1;stroke-width:1;stroke-linecap:butt;stroke-linejoin:miter;stroke:rgb(0%,0%,0%);stroke-opacity:1;stroke-miterlimit:10;" d="M 145 98 L 217 170 L 145 242 L 73 170 Z M 145 98 "/>
<path style="fill-rule:nonzero;fill:rgb(55%,14%,14%);fill-opacity:1;stroke-width:1;stroke-linecap:butt;stroke-linejoin:miter;stroke:rgb(0%,0%,0%);stroke-opacity:1;stroke-miterlimit:10;" d="M 356 170 C 356 181.597656 346.597656 191 335 191 C 323.402344 191 314 181.597656 314 170 C 314 158.402344 323.402344 149 335 149 C 346.597656 149 356 158.402344 356 170 "/>
<path style="fill-rule:nonzero;fill:rgb(55%,14%,14%);fill-opacity:1;stroke-width:1;stroke-linecap:butt;stroke-linejoin:miter;stroke:rgb(0%,0%,0%);stroke-opacity:1;stroke-miterlimit:10;" d="M 546 170 C 546 181.597656 536.597656 191 525 191 C 513.402344 191 504 181.597656 504 170 C 504 158.402344 513.402344 149 525 149 C 536.597656 149 546 158.402344 546 170 "/>
<path style="fill-rule:nonzero;fill:rgb(55%,51%,53%);fill-opacity:1;stroke-width:1;stroke-linecap:butt;stroke-linejoin:miter;stroke:rgb(0%,0%,0%);stroke-opacity:1;stroke-miterlimit:10;" d="M 715 170 L 727.359375 170 L 732.359375 158.246094 L 737.359375 170 L 749.722656 170 L 739.722656 177.265625 L 743.089844 190.410156 L 732.359375 183.144531 L 721.632813 190.410156 L 726.753906 177.265625 L 715 170 "/>
<path style="fill-rule:nonzero;fill:rgb(55%,14%,14%);fill-opacity:1;stroke-width:1;stroke-linecap:butt;stroke-linejoin:miter;stroke:rgb(0%,0%,0%);stroke-opacity:1;stroke-miterlimit:10;" d="M 886.667969 170 L 905.207031 170 L 912.707031 152.367188 L 920.207031 170 L 938.75 170 L 923.75 180.898438 L 928.800781 200.613281 L 912.707031 189.714844 L 896.613281 200.613281 L 904.300781 180.898438 L 886.667969 170 "/>
<path style="fill-rule:nonzero;fill:rgb(55%,14%,14%);fill-opacity:1;stroke-width:1;stroke-linecap:butt;stroke-linejoin:miter;stroke:rgb(0%,0%,0%);stroke-opacity:1;stroke-miterlimit:10;" d="M 1095 170 L 1101.179688 170 L 1103.679688 164.121094 L 1106.179688 170 L 1112.359375 170 L 1107.359375 173.632813 L 1109.046875 180.203125 L 1103.679688 176.570313 L 1098.316406 180.203125 L 1100.878906 173.632813 L 1095 170 "/>
</g>
</svg>
