<?xml version="1.0" encoding="UTF-8"?>
<svg xmlns="http://www.w3.org/2000/svg" xmlns:xlink="http://www.w3.org/1999/xlink" width="1240pt" height="300pt" viewBox="0 0 1240 300" version="1.1">
<g id="surface89">
<rect x="0" y="0" width="1240" height="300" style="fill:rgb(90%,90%,90%);fill-opacity:1;stroke:none;"/>
<path style="fill:none;stroke-width:5;stroke-linecap:butt;stroke-linejoin:miter;stroke:rgb(100%,0%,0%);stroke-opacity:1;stroke-miterlimit:10;" d="M 810 270 L 1000 270 L 1000 70 L 810 70 Z M 810 270 "/>
<path style="fill-rule:nonzero;fill:rgb(90%,65%,0%);fill-opacity:1;stroke-width:1;stroke-linecap:butt;stroke-linejoin:miter;stroke:rgb(0%,0%,0%);stroke-opacity:1;stroke-miterlimit:10;" d="M 145 170 L 157.359375 170 L 162.359375 158.246094 L 167.359375 170 L 179.722656 170 L 169.722656 177.265625 L 173.089844 190.410156 L 162.359375 183.144531 L 151.632813 190.410156 L 156.753906 177.265625 L 145 170 "/>
<path style="fill-rule:nonzero;fill:rgb(35%,70%,90%);fill-opacity:1;stroke-width:1;stroke-linecap:butt;stroke-linejoin:miter;stroke:rgb(0%,0%,0%);stroke-opacity:1;stroke-miterlimit:10;" d="M 316.667969 170 L 335.207031 170 L 342.707031 152.367188 L 350.207031 170 L 368.75 170 L 353.75 180.898438 L 358.800781 200.613281 L 342.707031 189.714844 L 326.613281 200.613281 L 334.300781 180.898438 L 316.667969 170 "/>
<path style="fill-rule:nonzero;fill:rgb(90%,65%,0%);fill-opacity:1;stroke-width:1;stroke-linecap:butt;stroke-linejoin:miter;stroke:rgb(0%,0%,0%);stroke-opacity:1;stroke-miterlimit:10;" d="M 525 170 L 537.359375 170 L 542.359375 158.246094 L 547.359375 170 L 559.722656 170 L 549.722656 177.265625 L 553.089844 190.410156 L 542.359375 183.144531 L 531.632813 190.410156 L 536.753906 177.265625 L 525 170 "/>
<path style="fill-rule:nonzero;fill:rgb(90%,65%,0%);fill-opacity:1;stroke-width:1;stroke-linecap:butt;stroke-linejoin:miter;stroke:rgb(0%,0%,0%);stroke-opacity:1;stroke-miterlimit:10;" d="M 715 154 L 731 170 L 715 186 L 699 170 Z M 715 154 "/>
<path style="fill-rule:nonzero;fill:rgb(90%,65%,0%);fill-opacity:1;stroke-width:1;stroke-linecap:butt;stroke-linejoin:miter;stroke:rgb(0%,0%,0%);stroke-opacity:1;stroke-miterlimit:10;" d="M 905 90 L 985 170 L 905 250 L 825 170 Z M 905 90 "/>
<path style="fill-rule:nonzero;fill:rgb(90%,65%,0%);fill-opacity:1;stroke-width:1;stroke-linecap:butt;stroke-linejoin:miter;stroke:rgb(0%,0%,0%);stroke-opacity:1;stroke-miterlimit:10;" d="M 1095 170 C 1095 161 1080 161 1080 170 C 1080 179 1095 180.5 1095 188 C 1095 180.5 1110 179 1110 170 C 1110 161 1095 161 1095 170 "/>
</g>
</svg>
