<?xml version="1.0" encoding="UTF-8"?>
<svg xmlns="http://www.w3.org/2000/svg" xmlns:xlink="http://www.w3.org/1999/xlink" width="1240pt" height="300pt" viewBox="0 0 1240 300" version="1.1">
<g id="surface2161">
<rect x="0" y="0" width="1240" height="300" style="fill:rgb(90%,90%,90%);fill-opacity:1;stroke:none;"/>
<path style="fill:none;stroke-width:5;stroke-linecap:butt;stroke-linejoin:miter;stroke:rgb(100%,0%,0%);stroke-opacity:1;stroke-miterlimit:10;" d="M 810 270 L 1000 270 L 1000 70 L 810 70 Z M 810 270 "/>
<path style="fill-rule:nonzero;fill:rgb(67%,100%,18%);fill-opacity:1;stroke-width:1;stroke-linecap:butt;stroke-linejoin:miter;stroke:rgb(0%,0%,0%);stroke-opacity:1;stroke-miterlimit:10;" d="M 145 154 L 161 170 L 145 186 L 129 170 Z M 145 154 "/>
<path style="fill-rule:nonzero;fill:rgb(67%,100%,18%);fill-opacity:1;stroke-width:1;stroke-linecap:butt;stroke-linejoin:miter;stroke:rgb(0%,0%,0%);stroke-opacity:1;stroke-miterlimit:10;" d="M 335 150 C 335 105 260 105 260 150 C 260 195 335 202.5 335 240 C 335 202.5 410 195 410 150 C 410 105 335 105 335 150 "/>
<path style="fill-rule:nonzero;fill:rgb(0%,0%,0%);fill-opacity:1;stroke-width:1;stroke-linecap:butt;stroke-linejoin:miter;stroke:rgb(0%,0%,0%);stroke-opacity:1;stroke-miterlimit:10;" d="M 525 170 C 525 165.5 517.5 165.5 517.5 170 C 517.5 174.5 525 175.25 525 179 C 525 175.25 532.5 174.5 532.5 170 C 532.5 165.5 525 165.5 525 170 "/>
<path style="fill-rule:nonzero;fill:rgb(0%,0%,0%);fill-opacity:1;stroke-width:1;stroke-linecap:butt;stroke-linejoin:miter;stroke:rgb(0%,0%,0%);stroke-opacity:1;stroke-miterlimit:10;" d="M 715 170 C 715 156.5 692.5 156.5 692.5 170 C 692.5 183.5 715 185.75 715 197 C 715 185.75 737.5 183.5 737.5 170 C 737.5 156.5 715 156.5 715 170 "/>
<path style="fill-rule:nonzero;fill:rgb(0%,0%,0%);fill-opacity:1;stroke-width:1;stroke-linecap:butt;stroke-linejoin:miter;stroke:rgb(0%,0%,0%);stroke-opacity:1;stroke-miterlimit:10;" d="M 975 170 C 975 208.660156 943.660156 240 905 240 C 866.339844 240 835 208.660156 835 170 C 835 131.339844 866.339844 100 905 100 C 943.660156 100 975 131.339844 975 170 "/>
<path style="fill-rule:nonzero;fill:rgb(67%,100%,18%);fill-opacity:1;stroke-width:1;stroke-linecap:butt;stroke-linejoin:miter;stroke:rgb(0%,0%,0%);stroke-opacity:1;stroke-miterlimit:10;" d="M 1010 150 L 1065.625 150 L 1088.125 97.097656 L 1110.625 150 L 1166.246094 150 L 1121.246094 182.695313 L 1136.40625 241.839844 L 1088.125 209.144531 L 1039.839844 241.839844 L 1062.902344 182.695313 L 1010 150 "/>
</g>
</svg>
