<?xml version="1.0" encoding="UTF-8"?>
<svg xmlns="http://www.w3.org/2000/svg" xmlns:xlink="http://www.w3.org/1999/xlink" width="1240pt" height="300pt" viewBox="0 0 1240 300" version="1.1">
<g id="surface3141">
<rect x="0" y="0" width="1240" height="300" style="fill:rgb(90%,90%,90%);fill-opacity:1;stroke:none;"/>
<path style="fill:none;stroke-width:5;stroke-linecap:butt;stroke-linejoin:miter;stroke:rgb(100%,0%,0%);stroke-opacity:1;stroke-miterlimit:10;" d="M 430 270 L 620 270 L 620 70 L 430 70 Z M 430 270 "/>
<path style="fill-rule:nonzero;fill:rgb(35%,70%,90%);fill-opacity:1;stroke-width:1;stroke-linecap:butt;stroke-linejoin:miter;stroke:rgb(0%,0%,0%);stroke-opacity:1;stroke-miterlimit:10;" d="M 145 150 C 145 109.5 77.5 109.5 77.5 150 C 77.5 190.5 145 197.25 145 231 C 145 197.25 212.5 190.5 212.5 150 C 212.5 109.5 145 109.5 145 150 "/>
<path style="fill-rule:nonzero;fill:rgb(35%,70%,90%);fill-opacity:1;stroke-width:1;stroke-linecap:butt;stroke-linejoin:miter;stroke:rgb(0%,0%,0%);stroke-opacity:1;stroke-miterlimit:10;" d="M 337 161 L 355 161 L 355 179 L 337 179 Z M 337 161 "/>
<path style="fill-rule:nonzero;fill:rgb(0%,0%,0%);fill-opacity:1;stroke-width:1;stroke-linecap:butt;stroke-linejoin:miter;stroke:rgb(0%,0%,0%);stroke-opacity:1;stroke-miterlimit:10;" d="M 465 110 L 585 110 L 585 230 L 465 230 Z M 465 110 "/>
<path style="fill-rule:nonzero;fill:rgb(67%,100%,18%);fill-opacity:1;stroke-width:1;stroke-linecap:butt;stroke-linejoin:miter;stroke:rgb(0%,0%,0%);stroke-opacity:1;stroke-miterlimit:10;" d="M 681 143 L 735 143 L 735 197 L 681 197 Z M 681 143 "/>
<path style="fill-rule:nonzero;fill:rgb(67%,100%,18%);fill-opacity:1;stroke-width:1;stroke-linecap:butt;stroke-linejoin:miter;stroke:rgb(0%,0%,0%);stroke-opacity:1;stroke-miterlimit:10;" d="M 905 150 C 905 105 830 105 830 150 C 830 195 905 202.5 905 240 C 905 202.5 980 195 980 150 C 980 105 905 105 905 150 "/>
<path style="fill-rule:nonzero;fill:rgb(67%,100%,18%);fill-opacity:1;stroke-width:1;stroke-linecap:butt;stroke-linejoin:miter;stroke:rgb(0%,0%,0%);stroke-opacity:1;stroke-miterlimit:10;" d="M 1095 170 C 1095 147.5 1057.5 147.5 1057.5 170 C 1057.5 192.5 1095 196.25 1095 215 C 1095 196.25 1132.5 192.5 1132.5 170 C 1132.5 147.5 1095 147.5 1095 170 "/>
</g>
</svg>
