<?xml version="1.0" encoding="UTF-8"?>
<svg xmlns="http://www.w3.org/2000/svg" xmlns:xlink="http://www.w3.org/1999/xlink" width="1240pt" height="300pt" viewBox="0 0 1240 300" version="1.1">
<g id="surface3716">
<rect x="0" y="0" width="1240" height="300" style="fill:rgb(90%,90%,90%);fill-opacity:1;stroke:none;"/>
<path style="fill:none;stroke-width:5;stroke-linecap:butt;stroke-linejoin:miter;stroke:rgb(100%,0%,0%);stroke-opacity:1;stroke-miterlimit:10;" d="M 50 270 L 240 270 L 240 70 L 50 70 Z M 50 270 "/>
<path style="fill-rule:nonzero;fill:rgb(53%,27%,7%);fill-opacity:1;stroke-width:1;stroke-linecap:butt;stroke-linejoin:miter;stroke:rgb(0%,0%,0%);stroke-opacity:1;stroke-miterlimit:10;" d="M 60 150 L 121.804688 150 L 146.804688 91.222656 L 171.804688 150 L 233.605469 150 L 183.605469 186.328125 L 200.449219 252.042969 L 146.804688 215.714844 L 93.15625 252.042969 L 118.777344 186.328125 L 60 150 "/>
<path style="fill-rule:nonzero;fill:rgb(53%,27%,7%);fill-opacity:1;stroke-width:1;stroke-linecap:butt;stroke-linejoin:miter;stroke:rgb(0%,0%,0%);stroke-opacity:1;stroke-miterlimit:10;" d="M 283.332031 170 L 320.414063 170 L 335.414063 134.734375 L 350.414063 170 L 387.496094 170 L 357.496094 191.796875 L 367.605469 231.226563 L 335.414063 209.429688 L 303.226563 231.226563 L 318.601563 191.796875 L 283.332031 170 "/>
<path style="fill-rule:nonzero;fill:rgb(53%,27%,7%);fill-opacity:1;stroke-width:1;stroke-linecap:butt;stroke-linejoin:miter;stroke:rgb(0%,0%,0%);stroke-opacity:1;stroke-miterlimit:10;" d="M 525 122 L 573 170 L 525 218 L 477 170 Z M 525 122 "/>
<path style="fill-rule:nonzero;fill:rgb(0%,0%,0%);fill-opacity:1;stroke-width:1;stroke-linecap:butt;stroke-linejoin:miter;stroke:rgb(0%,0%,0%);stroke-opacity:1;stroke-miterlimit:10;" d="M 715 170 L 727.359375 170 L 732.359375 158.246094 L 737.359375 170 L 749.722656 170 L 739.722656 177.265625 L 743.089844 190.410156 L 732.359375 183.144531 L 721.632813 190.410156 L 726.753906 177.265625 L 715 170 "/>
<path style="fill-rule:nonzero;fill:rgb(0%,0%,0%);fill-opacity:1;stroke-width:1;stroke-linecap:butt;stroke-linejoin:miter;stroke:rgb(0%,0%,0%);stroke-opacity:1;stroke-miterlimit:10;" d="M 853.332031 170 L 890.414063 170 L 905.414063 134.734375 L 920.414063 170 L 957.496094 170 L 927.496094 191.796875 L 937.605469 231.226563 L 905.414063 209.429688 L 873.226563 231.226563 L 888.601563 191.796875 L 853.332031 170 "/>
<path style="fill-rule:nonzero;fill:rgb(0%,0%,0%);fill-opacity:1;stroke-width:1;stroke-linecap:butt;stroke-linejoin:miter;stroke:rgb(0%,0%,0%);stroke-opacity:1;stroke-miterlimit:10;" d="M 1095 170 L 1107.359375 170 L 1112.359375 158.246094 L 1117.359375 170 L 1129.722656 170 L 1119.722656 177.265625 L 1123.089844 190.410156 L 1112.359375 183.144531 L 1101.632813 190.410156 L 1106.753906 177.265625 L 1095 170 "/>
</g>
</svg>
