<?xml version="1.0" encoding="UTF-8"?>
<svg xmlns="http://www.w3.org/2000/svg" xmlns:xlink="http://www.w3.org/1999/xlink" width="1240pt" height="300pt" viewBox="0 0 1240 300" version="1.1">
<g id="surface1226">
<rect x="0" y="0" width="1240" height="300" style="fill:rgb(90%,90%,90%);fill-opacity:1;stroke:none;"/>
<path style="fill:none;stroke-width:5;stroke-linecap:butt;stroke-linejoin:miter;stroke:rgb(100%,0%,0%);stroke-opacity:1;stroke-miterlimit:10;" d="M 240 270 L 430 270 L 430 70 L 240 70 Z M 240 270 "/>
<path style="fill-rule:nonzero;fill:rgb(90%,65%,0%);fill-opacity:1;stroke-width:1;stroke-linecap:butt;stroke-linejoin:miter;stroke:rgb(0%,0%,0%);stroke-opacity:1;stroke-miterlimit:10;" d="M 145 170 L 157.359375 170 L 162.359375 158.246094 L 167.359375 170 L 179.722656 170 L 169.722656 177.265625 L 173.089844 190.410156 L 162.359375 183.144531 L 151.632813 190.410156 L 156.753906 177.265625 L 145 170 "/>
<path style="fill-rule:nonzero;fill:rgb(67%,100%,18%);fill-opacity:1;stroke-width:1;stroke-linecap:butt;stroke-linejoin:miter;stroke:rgb(0%,0%,0%);stroke-opacity:1;stroke-miterlimit:10;" d="M 335 93.398438 L 260 223.300781 L 410 223.300781 L 335 93.398438 "/>
<path style="fill-rule:nonzero;fill:rgb(67%,100%,18%);fill-opacity:1;stroke-width:1;stroke-linecap:butt;stroke-linejoin:miter;stroke:rgb(0%,0%,0%);stroke-opacity:1;stroke-miterlimit:10;" d="M 525 170 L 537.359375 170 L 542.359375 158.246094 L 547.359375 170 L 559.722656 170 L 549.722656 177.265625 L 553.089844 190.410156 L 542.359375 183.144531 L 531.632813 190.410156 L 536.753906 177.265625 L 525 170 "/>
<path style="fill-rule:nonzero;fill:rgb(67%,100%,18%);fill-opacity:1;stroke-width:1;stroke-linecap:butt;stroke-linejoin:miter;stroke:rgb(0%,0%,0%);stroke-opacity:1;stroke-miterlimit:10;" d="M 715 93.398438 L 640 223.300781 L 790 223.300781 L 715 93.398438 "/>
<path style="fill-rule:nonzero;fill:rgb(90%,65%,0%);fill-opacity:1;stroke-width:1;stroke-linecap:butt;stroke-linejoin:miter;stroke:rgb(0%,0%,0%);stroke-opacity:1;stroke-miterlimit:10;" d="M 905 154.019531 L 882.5 192.992188 L 927.5 192.992188 L 905 154.019531 "/>
<path style="fill-rule:nonzero;fill:rgb(90%,65%,0%);fill-opacity:1;stroke-width:1;stroke-linecap:butt;stroke-linejoin:miter;stroke:rgb(0%,0%,0%);stroke-opacity:1;stroke-miterlimit:10;" d="M 1095 170 L 1107.359375 170 L 1112.359375 158.246094 L 1117.359375 170 L 1129.722656 170 L 1119.722656 177.265625 L 1123.089844 190.410156 L 1112.359375 183.144531 L 1101.632813 190.410156 L 1106.753906 177.265625 L 1095 170 "/>
</g>
</svg>
