<?xml version="1.0" encoding="UTF-8"?>
<svg xmlns="http://www.w3.org/2000/svg" xmlns:xlink="http://www.w3.org/1999/xlink" width="1240pt" height="300pt" viewBox="0 0 1240 300" version="1.1">
<g id="surface4481">
<rect x="0" y="0" width="1240" height="300" style="fill:rgb(90%,90%,90%);fill-opacity:1;stroke:none;"/>
<path style="fill:none;stroke-width:5;stroke-linecap:butt;stroke-linejoin:miter;stroke:rgb(100%,0%,0%);stroke-opacity:1;stroke-miterlimit:10;" d="M 1000 270 L 1190 270 L 1190 70 L 1000 70 Z M 1000 270 "/>
<path style="fill-rule:nonzero;fill:rgb(55%,51%,53%);fill-opacity:1;stroke-width:1;stroke-linecap:butt;stroke-linejoin:miter;stroke:rgb(0%,0%,0%);stroke-opacity:1;stroke-miterlimit:10;" d="M 110 170 L 134.722656 170 L 144.722656 146.488281 L 154.722656 170 L 179.441406 170 L 159.441406 184.53125 L 166.179688 210.816406 L 144.722656 196.285156 L 123.261719 210.816406 L 133.511719 184.53125 L 110 170 "/>
<path style="fill-rule:nonzero;fill:rgb(0%,0%,0%);fill-opacity:1;stroke-width:1;stroke-linecap:butt;stroke-linejoin:miter;stroke:rgb(0%,0%,0%);stroke-opacity:1;stroke-miterlimit:10;" d="M 335 102.058594 L 267.5 218.972656 L 402.5 218.972656 L 335 102.058594 "/>
<path style="fill-rule:nonzero;fill:rgb(0%,0%,0%);fill-opacity:1;stroke-width:1;stroke-linecap:butt;stroke-linejoin:miter;stroke:rgb(0%,0%,0%);stroke-opacity:1;stroke-miterlimit:10;" d="M 480 170 L 510.902344 170 L 523.402344 140.609375 L 535.902344 170 L 566.804688 170 L 541.804688 188.164063 L 550.226563 221.023438 L 523.402344 202.859375 L 496.578125 221.023438 L 509.390625 188.164063 L 480 170 "/>
<path style="fill-rule:nonzero;fill:rgb(0%,0%,0%);fill-opacity:1;stroke-width:1;stroke-linecap:butt;stroke-linejoin:miter;stroke:rgb(0%,0%,0%);stroke-opacity:1;stroke-miterlimit:10;" d="M 715 170 L 721.179688 170 L 723.679688 164.121094 L 726.179688 170 L 732.359375 170 L 727.359375 173.632813 L 729.046875 180.203125 L 723.679688 176.570313 L 718.316406 180.203125 L 720.878906 173.632813 L 715 170 "/>
<path style="fill-rule:nonzero;fill:rgb(0%,0%,0%);fill-opacity:1;stroke-width:1;stroke-linecap:butt;stroke-linejoin:miter;stroke:rgb(0%,0%,0%);stroke-opacity:1;stroke-miterlimit:10;" d="M 886.667969 170 L 905.207031 170 L 912.707031 152.367188 L 920.207031 170 L 938.75 170 L 923.75 180.898438 L 928.800781 200.613281 L 912.707031 189.714844 L 896.613281 200.613281 L 904.300781 180.898438 L 886.667969 170 "/>
<path style="fill-rule:nonzero;fill:rgb(0%,0%,0%);fill-opacity:1;stroke-width:1;stroke-linecap:butt;stroke-linejoin:miter;stroke:rgb(0%,0%,0%);stroke-opacity:1;stroke-miterlimit:10;" d="M 1010 150 L 1071.804688 150 L 1096.804688 91.222656 L 1121.804688 150 L 1183.605469 150 L 1133.605469 186.328125 L 1150.449219 252.042969 L 1096.804688 215.714844 L 1043.15625 252.042969 L 1068.777344 186.328125 L 1010 150 "/>
</g>
</svg>
