<?xml version="1.0" encoding="UTF-8"?>
<svg xmlns="http://www.w3.org/2000/svg" xmlns:xlink="http://www.w3.org/1999/xlink" width="1240pt" height="300pt" viewBox="0 0 1240 300" version="1.1">
<g id="surface2213">
<rect x="0" y="0" width="1240" height="300" style="fill:rgb(90%,90%,90%);fill-opacity:1;stroke:none;"/>
<path style="fill:none;stroke-width:5;stroke-linecap:butt;stroke-linejoin:miter;stroke:rgb(100%,0%,0%);stroke-opacity:1;stroke-miterlimit:10;" d="M 810 270 L 1000 270 L 1000 70 L 810 70 Z M 810 270 "/>
<path style="fill-rule:nonzero;fill:rgb(90%,65%,0%);fill-opacity:1;stroke-width:1;stroke-linecap:butt;stroke-linejoin:miter;stroke:rgb(0%,0%,0%);stroke-opacity:1;stroke-miterlimit:10;" d="M 145 154.019531 L 122.5 192.992188 L 167.5 192.992188 L 145 154.019531 "/>
<path style="fill-rule:nonzero;fill:rgb(90%,65%,0%);fill-opacity:1;stroke-width:1;stroke-linecap:butt;stroke-linejoin:miter;stroke:rgb(0%,0%,0%);stroke-opacity:1;stroke-miterlimit:10;" d="M 335 167.007813 L 323.75 186.496094 L 346.25 186.496094 L 335 167.007813 "/>
<path style="fill-rule:nonzero;fill:rgb(90%,65%,0%);fill-opacity:1;stroke-width:1;stroke-linecap:butt;stroke-linejoin:miter;stroke:rgb(0%,0%,0%);stroke-opacity:1;stroke-miterlimit:10;" d="M 525 154.019531 L 502.5 192.992188 L 547.5 192.992188 L 525 154.019531 "/>
<path style="fill-rule:nonzero;fill:rgb(90%,65%,0%);fill-opacity:1;stroke-width:1;stroke-linecap:butt;stroke-linejoin:miter;stroke:rgb(0%,0%,0%);stroke-opacity:1;stroke-miterlimit:10;" d="M 680 170 L 704.722656 170 L 714.722656 146.488281 L 724.722656 170 L 749.441406 170 L 729.441406 184.53125 L 736.179688 210.816406 L 714.722656 196.285156 L 693.261719 210.816406 L 703.511719 184.53125 L 680 170 "/>
<path style="fill-rule:nonzero;fill:rgb(90%,65%,0%);fill-opacity:1;stroke-width:1;stroke-linecap:butt;stroke-linejoin:miter;stroke:rgb(0%,0%,0%);stroke-opacity:1;stroke-miterlimit:10;" d="M 820 150 L 881.804688 150 L 906.804688 91.222656 L 931.804688 150 L 993.605469 150 L 943.605469 186.328125 L 960.449219 252.042969 L 906.804688 215.714844 L 853.15625 252.042969 L 878.777344 186.328125 L 820 150 "/>
<path style="fill-rule:nonzero;fill:rgb(35%,70%,90%);fill-opacity:1;stroke-width:1;stroke-linecap:butt;stroke-linejoin:miter;stroke:rgb(0%,0%,0%);stroke-opacity:1;stroke-miterlimit:10;" d="M 1076.667969 170 L 1095.207031 170 L 1102.707031 152.367188 L 1110.207031 170 L 1128.75 170 L 1113.75 180.898438 L 1118.800781 200.613281 L 1102.707031 189.714844 L 1086.613281 200.613281 L 1094.300781 180.898438 L 1076.667969 170 "/>
</g>
</svg>
