<?xml version="1.0" encoding="UTF-8"?>
<svg xmlns="http://www.w3.org/2000/svg" xmlns:xlink="http://www.w3.org/1999/xlink" width="1240pt" height="300pt" viewBox="0 0 1240 300" version="1.1">
<g id="surface4831">
<rect x="0" y="0" width="1240" height="300" style="fill:rgb(90%,90%,90%);fill-opacity:1;stroke:none;"/>
<path style="fill:none;stroke-width:5;stroke-linecap:butt;stroke-linejoin:miter;stroke:rgb(100%,0%,0%);stroke-opacity:1;stroke-miterlimit:10;" d="M 810 270 L 1000 270 L 1000 70 L 810 70 Z M 810 270 "/>
<path style="fill-rule:nonzero;fill:rgb(0%,0%,0%);fill-opacity:1;stroke-width:1;stroke-linecap:butt;stroke-linejoin:miter;stroke:rgb(0%,0%,0%);stroke-opacity:1;stroke-miterlimit:10;" d="M 145 167.007813 L 133.75 186.496094 L 156.25 186.496094 L 145 167.007813 "/>
<path style="fill-rule:nonzero;fill:rgb(53%,27%,7%);fill-opacity:1;stroke-width:1;stroke-linecap:butt;stroke-linejoin:miter;stroke:rgb(0%,0%,0%);stroke-opacity:1;stroke-miterlimit:10;" d="M 335 141.027344 L 301.25 199.484375 L 368.75 199.484375 L 335 141.027344 "/>
<path style="fill-rule:nonzero;fill:rgb(53%,27%,7%);fill-opacity:1;stroke-width:1;stroke-linecap:butt;stroke-linejoin:miter;stroke:rgb(0%,0%,0%);stroke-opacity:1;stroke-miterlimit:10;" d="M 525 141.027344 L 491.25 199.484375 L 558.75 199.484375 L 525 141.027344 "/>
<path style="fill-rule:nonzero;fill:rgb(53%,27%,7%);fill-opacity:1;stroke-width:1;stroke-linecap:butt;stroke-linejoin:miter;stroke:rgb(0%,0%,0%);stroke-opacity:1;stroke-miterlimit:10;" d="M 715 170 L 721.179688 170 L 723.679688 164.121094 L 726.179688 170 L 732.359375 170 L 727.359375 173.632813 L 729.046875 180.203125 L 723.679688 176.570313 L 718.316406 180.203125 L 720.878906 173.632813 L 715 170 "/>
<path style="fill-rule:nonzero;fill:rgb(53%,27%,7%);fill-opacity:1;stroke-width:1;stroke-linecap:butt;stroke-linejoin:miter;stroke:rgb(0%,0%,0%);stroke-opacity:1;stroke-miterlimit:10;" d="M 820 150 L 875.625 150 L 898.125 97.097656 L 920.625 150 L 976.246094 150 L 931.246094 182.695313 L 946.40625 241.839844 L 898.125 209.144531 L 849.839844 241.839844 L 872.902344 182.695313 L 820 150 "/>
<path style="fill-rule:nonzero;fill:rgb(53%,27%,7%);fill-opacity:1;stroke-width:1;stroke-linecap:butt;stroke-linejoin:miter;stroke:rgb(0%,0%,0%);stroke-opacity:1;stroke-miterlimit:10;" d="M 1097 161 L 1115 161 L 1115 179 L 1097 179 Z M 1097 161 "/>
</g>
</svg>
