<?xml version="1.0" encoding="UTF-8"?>
<svg xmlns="http://www.w3.org/2000/svg" xmlns:xlink="http://www.w3.org/1999/xlink" width="1240pt" height="300pt" viewBox="0 0 1240 300" version="1.1">
<g id="surface4681">
<rect x="0" y="0" width="1240" height="300" style="fill:rgb(90%,90%,90%);fill-opacity:1;stroke:none;"/>
<path style="fill:none;stroke-width:5;stroke-linecap:butt;stroke-linejoin:miter;stroke:rgb(100%,0%,0%);stroke-opacity:1;stroke-miterlimit:10;" d="M 430 270 L 620 270 L 620 70 L 430 70 Z M 430 270 "/>
<path style="fill-rule:nonzero;fill:rgb(90%,65%,0%);fill-opacity:1;stroke-width:1;stroke-linecap:butt;stroke-linejoin:miter;stroke:rgb(0%,0%,0%);stroke-opacity:1;stroke-miterlimit:10;" d="M 60 150 L 121.804688 150 L 146.804688 91.222656 L 171.804688 150 L 233.605469 150 L 183.605469 186.328125 L 200.449219 252.042969 L 146.804688 215.714844 L 93.15625 252.042969 L 118.777344 186.328125 L 60 150 "/>
<path style="fill-rule:nonzero;fill:rgb(90%,65%,0%);fill-opacity:1;stroke-width:1;stroke-linecap:butt;stroke-linejoin:miter;stroke:rgb(0%,0%,0%);stroke-opacity:1;stroke-miterlimit:10;" d="M 335 90 L 415 170 L 335 250 L 255 170 Z M 335 90 "/>
<path style="fill-rule:nonzero;fill:rgb(35%,70%,90%);fill-opacity:1;stroke-width:1;stroke-linecap:butt;stroke-linejoin:miter;stroke:rgb(0%,0%,0%);stroke-opacity:1;stroke-miterlimit:10;" d="M 525 150 C 525 105 450 105 450 150 C 450 195 525 202.5 525 240 C 525 202.5 600 195 600 150 C 600 105 525 105 525 150 "/>
<path style="fill-rule:nonzero;fill:rgb(35%,70%,90%);fill-opacity:1;stroke-width:1;stroke-linecap:butt;stroke-linejoin:miter;stroke:rgb(0%,0%,0%);stroke-opacity:1;stroke-miterlimit:10;" d="M 715 170 C 715 165.5 707.5 165.5 707.5 170 C 707.5 174.5 715 175.25 715 179 C 715 175.25 722.5 174.5 722.5 170 C 722.5 165.5 715 165.5 715 170 "/>
<path style="fill-rule:nonzero;fill:rgb(35%,70%,90%);fill-opacity:1;stroke-width:1;stroke-linecap:butt;stroke-linejoin:miter;stroke:rgb(0%,0%,0%);stroke-opacity:1;stroke-miterlimit:10;" d="M 905 170 C 905 165.5 897.5 165.5 897.5 170 C 897.5 174.5 905 175.25 905 179 C 905 175.25 912.5 174.5 912.5 170 C 912.5 165.5 905 165.5 905 170 "/>
<path style="fill-rule:nonzero;fill:rgb(90%,65%,0%);fill-opacity:1;stroke-width:1;stroke-linecap:butt;stroke-linejoin:miter;stroke:rgb(0%,0%,0%);stroke-opacity:1;stroke-miterlimit:10;" d="M 1095 167.007813 L 1083.75 186.496094 L 1106.25 186.496094 L 1095 167.007813 "/>
</g>
</svg>
