<?xml version="1.0" encoding="UTF-8"?>
<svg xmlns="http://www.w3.org/2000/svg" xmlns:xlink="http://www.w3.org/1999/xlink" width="1240pt" height="300pt" viewBox="0 0 1240 300" version="1.1">
<g id="surface4661">
<rect x="0" y="0" width="1240" height="300" style="fill:rgb(90%,90%,90%);fill-opacity:1;stroke:none;"/>
<path style="fill:none;stroke-width:5;stroke-linecap:butt;stroke-linejoin:miter;stroke:rgb(100%,0%,0%);stroke-opacity:1;stroke-miterlimit:10;" d="M 50 270 L 240 270 L 240 70 L 50 70 Z M 50 270 "/>
<path style="fill-rule:nonzero;fill:rgb(0%,0%,0%);fill-opacity:1;stroke-width:1;stroke-linecap:butt;stroke-linejoin:miter;stroke:rgb(0%,0%,0%);stroke-opacity:1;stroke-miterlimit:10;" d="M 215 170 C 215 208.660156 183.660156 240 145 240 C 106.339844 240 75 208.660156 75 170 C 75 131.339844 106.339844 100 145 100 C 183.660156 100 215 131.339844 215 170 "/>
<path style="fill-rule:nonzero;fill:rgb(0%,0%,0%);fill-opacity:1;stroke-width:1;stroke-linecap:butt;stroke-linejoin:miter;stroke:rgb(0%,0%,0%);stroke-opacity:1;stroke-miterlimit:10;" d="M 366.5 170 C 366.5 187.398438 352.398438 201.5 335 201.5 C 317.601563 201.5 303.5 187.398438 303.5 170 C 303.5 152.601563 317.601563 138.5 335 138.5 C 352.398438 138.5 366.5 152.601563 366.5 170 "/>
<path style="fill-rule:nonzero;fill:rgb(0%,0%,0%);fill-opacity:1;stroke-width:1;stroke-linecap:butt;stroke-linejoin:miter;stroke:rgb(0%,0%,0%);stroke-opacity:1;stroke-miterlimit:10;" d="M 506.667969 170 L 525.207031 170 L 532.707031 152.367188 L 540.207031 170 L 558.75 170 L 543.75 180.898438 L 548.800781 200.613281 L 532.707031 189.714844 L 516.613281 200.613281 L 524.300781 180.898438 L 506.667969 170 "/>
<path style="fill-rule:nonzero;fill:rgb(35%,70%,90%);fill-opacity:1;stroke-width:1;stroke-linecap:butt;stroke-linejoin:miter;stroke:rgb(0%,0%,0%);stroke-opacity:1;stroke-miterlimit:10;" d="M 725.5 170 C 725.5 175.800781 720.800781 180.5 715 180.5 C 709.199219 180.5 704.5 175.800781 704.5 170 C 704.5 164.199219 709.199219 159.5 715 159.5 C 720.800781 159.5 725.5 164.199219 725.5 170 "/>
<path style="fill-rule:nonzero;fill:rgb(35%,70%,90%);fill-opacity:1;stroke-width:1;stroke-linecap:butt;stroke-linejoin:miter;stroke:rgb(0%,0%,0%);stroke-opacity:1;stroke-miterlimit:10;" d="M 936.5 170 C 936.5 187.398438 922.398438 201.5 905 201.5 C 887.601563 201.5 873.5 187.398438 873.5 170 C 873.5 152.601563 887.601563 138.5 905 138.5 C 922.398438 138.5 936.5 152.601563 936.5 170 "/>
<path style="fill-rule:nonzero;fill:rgb(35%,70%,90%);fill-opacity:1;stroke-width:1;stroke-linecap:butt;stroke-linejoin:miter;stroke:rgb(0%,0%,0%);stroke-opacity:1;stroke-miterlimit:10;" d="M 1116 170 C 1116 181.597656 1106.597656 191 1095 191 C 1083.402344 191 1074 181.597656 1074 170 C 1074 158.402344 1083.402344 149 1095 149 C 1106.597656 149 1116 158.402344 1116 170 "/>
</g>
</svg>
