<?xml version="1.0" encoding="UTF-8"?>
<svg xmlns="http://www.w3.org/2000/svg" xmlns:xlink="http://www.w3.org/1999/xlink" width="1240pt" height="300pt" viewBox="0 0 1240 300" version="1.1">
<g id="surface3801">
<rect x="0" y="0" width="1240" height="300" style="fill:rgb(90%,90%,90%);fill-opacity:1;stroke:none;"/>
<path style="fill:none;stroke-width:5;stroke-linecap:butt;stroke-linejoin:miter;stroke:rgb(100%,0%,0%);stroke-opacity:1;stroke-miterlimit:10;" d="M 430 270 L 620 270 L 620 70 L 430 70 Z M 430 270 "/>
<path style="fill-rule:nonzero;fill:rgb(53%,27%,7%);fill-opacity:1;stroke-width:1;stroke-linecap:butt;stroke-linejoin:miter;stroke:rgb(0%,0%,0%);stroke-opacity:1;stroke-miterlimit:10;" d="M 93.332031 170 L 130.414063 170 L 145.414063 134.734375 L 160.414063 170 L 197.496094 170 L 167.496094 191.796875 L 177.605469 231.226563 L 145.414063 209.429688 L 113.226563 231.226563 L 128.601563 191.796875 L 93.332031 170 "/>
<path style="fill-rule:nonzero;fill:rgb(67%,100%,18%);fill-opacity:1;stroke-width:1;stroke-linecap:butt;stroke-linejoin:miter;stroke:rgb(0%,0%,0%);stroke-opacity:1;stroke-miterlimit:10;" d="M 300 170 L 324.722656 170 L 334.722656 146.488281 L 344.722656 170 L 369.441406 170 L 349.441406 184.53125 L 356.179688 210.816406 L 334.722656 196.285156 L 313.261719 210.816406 L 323.511719 184.53125 L 300 170 "/>
<path style="fill-rule:nonzero;fill:rgb(53%,27%,7%);fill-opacity:1;stroke-width:1;stroke-linecap:butt;stroke-linejoin:miter;stroke:rgb(0%,0%,0%);stroke-opacity:1;stroke-miterlimit:10;" d="M 525 93.398438 L 450 223.300781 L 600 223.300781 L 525 93.398438 "/>
<path style="fill-rule:nonzero;fill:rgb(53%,27%,7%);fill-opacity:1;stroke-width:1;stroke-linecap:butt;stroke-linejoin:miter;stroke:rgb(0%,0%,0%);stroke-opacity:1;stroke-miterlimit:10;" d="M 717 161 L 735 161 L 735 179 L 717 179 Z M 717 161 "/>
<path style="fill-rule:nonzero;fill:rgb(53%,27%,7%);fill-opacity:1;stroke-width:1;stroke-linecap:butt;stroke-linejoin:miter;stroke:rgb(0%,0%,0%);stroke-opacity:1;stroke-miterlimit:10;" d="M 957.5 170 C 957.5 198.996094 933.996094 222.5 905 222.5 C 876.003906 222.5 852.5 198.996094 852.5 170 C 852.5 141.003906 876.003906 117.5 905 117.5 C 933.996094 117.5 957.5 141.003906 957.5 170 "/>
<path style="fill-rule:nonzero;fill:rgb(53%,27%,7%);fill-opacity:1;stroke-width:1;stroke-linecap:butt;stroke-linejoin:miter;stroke:rgb(0%,0%,0%);stroke-opacity:1;stroke-miterlimit:10;" d="M 1095 170 C 1095 165.5 1087.5 165.5 1087.5 170 C 1087.5 174.5 1095 175.25 1095 179 C 1095 175.25 1102.5 174.5 1102.5 170 C 1102.5 165.5 1095 165.5 1095 170 "/>
</g>
</svg>
