<?xml version="1.0" encoding="UTF-8"?>
<svg xmlns="http://www.w3.org/2000/svg" xmlns:xlink="http://www.w3.org/1999/xlink" width="1240pt" height="300pt" viewBox="0 0 1240 300" version="1.1">
<g id="surface3969">
<rect x="0" y="0" width="1240" height="300" style="fill:rgb(90%,90%,90%);fill-opacity:1;stroke:none;"/>
<path style="fill:none;stroke-width:5;stroke-linecap:butt;stroke-linejoin:miter;stroke:rgb(100%,0%,0%);stroke-opacity:1;stroke-miterlimit:10;" d="M 620 270 L 810 270 L 810 70 L 620 70 Z M 620 270 "/>
<path style="fill-rule:nonzero;fill:rgb(0%,0%,0%);fill-opacity:1;stroke-width:1;stroke-linecap:butt;stroke-linejoin:miter;stroke:rgb(0%,0%,0%);stroke-opacity:1;stroke-miterlimit:10;" d="M 100 170 L 130.902344 170 L 143.402344 140.609375 L 155.902344 170 L 186.804688 170 L 161.804688 188.164063 L 170.226563 221.023438 L 143.402344 202.859375 L 116.578125 221.023438 L 129.390625 188.164063 L 100 170 "/>
<path style="fill-rule:nonzero;fill:rgb(0%,0%,0%);fill-opacity:1;stroke-width:1;stroke-linecap:butt;stroke-linejoin:miter;stroke:rgb(0%,0%,0%);stroke-opacity:1;stroke-miterlimit:10;" d="M 290 170 L 320.902344 170 L 333.402344 140.609375 L 345.902344 170 L 376.804688 170 L 351.804688 188.164063 L 360.226563 221.023438 L 333.402344 202.859375 L 306.578125 221.023438 L 319.390625 188.164063 L 290 170 "/>
<path style="fill-rule:nonzero;fill:rgb(53%,27%,7%);fill-opacity:1;stroke-width:1;stroke-linecap:butt;stroke-linejoin:miter;stroke:rgb(0%,0%,0%);stroke-opacity:1;stroke-miterlimit:10;" d="M 525 93.398438 L 450 223.300781 L 600 223.300781 L 525 93.398438 "/>
<path style="fill-rule:nonzero;fill:rgb(53%,27%,7%);fill-opacity:1;stroke-width:1;stroke-linecap:butt;stroke-linejoin:miter;stroke:rgb(0%,0%,0%);stroke-opacity:1;stroke-miterlimit:10;" d="M 630 150 L 685.625 150 L 708.125 97.097656 L 730.625 150 L 786.246094 150 L 741.246094 182.695313 L 756.40625 241.839844 L 708.125 209.144531 L 659.839844 241.839844 L 682.902344 182.695313 L 630 150 "/>
<path style="fill-rule:nonzero;fill:rgb(53%,27%,7%);fill-opacity:1;stroke-width:1;stroke-linecap:butt;stroke-linejoin:miter;stroke:rgb(0%,0%,0%);stroke-opacity:1;stroke-miterlimit:10;" d="M 905 141.027344 L 871.25 199.484375 L 938.75 199.484375 L 905 141.027344 "/>
<path style="fill-rule:nonzero;fill:rgb(90%,65%,0%);fill-opacity:1;stroke-width:1;stroke-linecap:butt;stroke-linejoin:miter;stroke:rgb(0%,0%,0%);stroke-opacity:1;stroke-miterlimit:10;" d="M 1095 93.398438 L 1020 223.300781 L 1170 223.300781 L 1095 93.398438 "/>
</g>
</svg>
