<?xml version="1.0" encoding="UTF-8"?>
<svg xmlns="http://www.w3.org/2000/svg" xmlns:xlink="http://www.w3.org/1999/xlink" width="1240pt" height="300pt" viewBox="0 0 1240 300" version="1.1">
<g id="surface3361">
<rect x="0" y="0" width="1240" height="300" style="fill:rgb(90%,90%,90%);fill-opacity:1;stroke:none;"/>
<path style="fill:none;stroke-width:5;stroke-linecap:butt;stroke-linejoin:miter;stroke:rgb(100%,0%,0%);stroke-opacity:1;stroke-miterlimit:10;" d="M 430 270 L 620 270 L 620 70 L 430 70 Z M 430 270 "/>
<path style="fill-rule:nonzero;fill:rgb(0%,0%,0%);fill-opacity:1;stroke-width:1;stroke-linecap:butt;stroke-linejoin:miter;stroke:rgb(0%,0%,0%);stroke-opacity:1;stroke-miterlimit:10;" d="M 85 110 L 205 110 L 205 230 L 85 230 Z M 85 110 "/>
<path style="fill-rule:nonzero;fill:rgb(0%,0%,0%);fill-opacity:1;stroke-width:1;stroke-linecap:butt;stroke-linejoin:miter;stroke:rgb(0%,0%,0%);stroke-opacity:1;stroke-miterlimit:10;" d="M 301 143 L 355 143 L 355 197 L 301 197 Z M 301 143 "/>
<path style="fill-rule:nonzero;fill:rgb(0%,0%,0%);fill-opacity:1;stroke-width:1;stroke-linecap:butt;stroke-linejoin:miter;stroke:rgb(0%,0%,0%);stroke-opacity:1;stroke-miterlimit:10;" d="M 525 170 L 537.359375 170 L 542.359375 158.246094 L 547.359375 170 L 559.722656 170 L 549.722656 177.265625 L 553.089844 190.410156 L 542.359375 183.144531 L 531.632813 190.410156 L 536.753906 177.265625 L 525 170 "/>
<path style="fill-rule:nonzero;fill:rgb(0%,0%,0%);fill-opacity:1;stroke-width:1;stroke-linecap:butt;stroke-linejoin:miter;stroke:rgb(0%,0%,0%);stroke-opacity:1;stroke-miterlimit:10;" d="M 655 110 L 775 110 L 775 230 L 655 230 Z M 655 110 "/>
<path style="fill-rule:nonzero;fill:rgb(55%,51%,53%);fill-opacity:1;stroke-width:1;stroke-linecap:butt;stroke-linejoin:miter;stroke:rgb(0%,0%,0%);stroke-opacity:1;stroke-miterlimit:10;" d="M 845 110 L 965 110 L 965 230 L 845 230 Z M 845 110 "/>
<path style="fill-rule:nonzero;fill:rgb(0%,0%,0%);fill-opacity:1;stroke-width:1;stroke-linecap:butt;stroke-linejoin:miter;stroke:rgb(0%,0%,0%);stroke-opacity:1;stroke-miterlimit:10;" d="M 1061 143 L 1115 143 L 1115 197 L 1061 197 Z M 1061 143 "/>
</g>
</svg>
