<?xml version="1.0" encoding="UTF-8"?>
<svg xmlns="http://www.w3.org/2000/svg" xmlns:xlink="http://www.w3.org/1999/xlink" width="1240pt" height="300pt" viewBox="0 0 1240 300" version="1.1">
<g id="surface5396">
<rect x="0" y="0" width="1240" height="300" style="fill:rgb(90%,90%,90%);fill-opacity:1;stroke:none;"/>
<path style="fill:none;stroke-width:5;stroke-linecap:butt;stroke-linejoin:miter;stroke:rgb(100%,0%,0%);stroke-opacity:1;stroke-miterlimit:10;" d="M 430 270 L 620 270 L 620 70 L 430 70 Z M 430 270 "/>
<path style="fill-rule:nonzero;fill:rgb(0%,0%,0%);fill-opacity:1;stroke-width:1;stroke-linecap:butt;stroke-linejoin:miter;stroke:rgb(0%,0%,0%);stroke-opacity:1;stroke-miterlimit:10;" d="M 145 170 C 145 165.5 137.5 165.5 137.5 170 C 137.5 174.5 145 175.25 145 179 C 145 175.25 152.5 174.5 152.5 170 C 152.5 165.5 145 165.5 145 170 "/>
<path style="fill-rule:nonzero;fill:rgb(0%,0%,0%);fill-opacity:1;stroke-width:1;stroke-linecap:butt;stroke-linejoin:miter;stroke:rgb(0%,0%,0%);stroke-opacity:1;stroke-miterlimit:10;" d="M 335 170 C 335 156.5 312.5 156.5 312.5 170 C 312.5 183.5 335 185.75 335 197 C 335 185.75 357.5 183.5 357.5 170 C 357.5 156.5 335 156.5 335 170 "/>
<path style="fill-rule:nonzero;fill:rgb(0%,0%,0%);fill-opacity:1;stroke-width:1;stroke-linecap:butt;stroke-linejoin:miter;stroke:rgb(0%,0%,0%);stroke-opacity:1;stroke-miterlimit:10;" d="M 440 150 L 501.804688 150 L 526.804688 91.222656 L 551.804688 150 L 613.605469 150 L 563.605469 186.328125 L 580.449219 252.042969 L 526.804688 215.714844 L 473.15625 252.042969 L 498.777344 186.328125 L 440 150 "/>
<path style="fill-rule:nonzero;fill:rgb(67%,100%,18%);fill-opacity:1;stroke-width:1;stroke-linecap:butt;stroke-linejoin:miter;stroke:rgb(0%,0%,0%);stroke-opacity:1;stroke-miterlimit:10;" d="M 715 150 C 715 109.5 647.5 109.5 647.5 150 C 647.5 190.5 715 197.25 715 231 C 715 197.25 782.5 190.5 782.5 150 C 782.5 109.5 715 109.5 715 150 "/>
<path style="fill-rule:nonzero;fill:rgb(0%,0%,0%);fill-opacity:1;stroke-width:1;stroke-linecap:butt;stroke-linejoin:miter;stroke:rgb(0%,0%,0%);stroke-opacity:1;stroke-miterlimit:10;" d="M 886.667969 170 L 905.207031 170 L 912.707031 152.367188 L 920.207031 170 L 938.75 170 L 923.75 180.898438 L 928.800781 200.613281 L 912.707031 189.714844 L 896.613281 200.613281 L 904.300781 180.898438 L 886.667969 170 "/>
<path style="fill-rule:nonzero;fill:rgb(0%,0%,0%);fill-opacity:1;stroke-width:1;stroke-linecap:butt;stroke-linejoin:miter;stroke:rgb(0%,0%,0%);stroke-opacity:1;stroke-miterlimit:10;" d="M 1010 150 L 1071.804688 150 L 1096.804688 91.222656 L 1121.804688 150 L 1183.605469 150 L 1133.605469 186.328125 L 1150.449219 252.042969 L 1096.804688 215.714844 L 1043.15625 252.042969 L 1068.777344 186.328125 L 1010 150 "/>
</g>
</svg>
