<?xml version="1.0" encoding="UTF-8"?>
<svg xmlns="http://www.w3.org/2000/svg" xmlns:xlink="http://www.w3.org/1999/xlink" width="1240pt" height="300pt" viewBox="0 0 1240 300" version="1.1">
<g id="surface461">
<rect x="0" y="0" width="1240" height="300" style="fill:rgb(90%,90%,90%);fill-opacity:1;stroke:none;"/>
<path style=" stroke:none;fill-rule:nonzero;fill:rgb(90%,50%,50%);fill-opacity:0.5;" d="M 50 270 L 240 270 L 240 30 L 50 30 Z M 50 270 "/>
<path style="fill-rule:nonzero;fill:rgb(35%,70%,90%);fill-opacity:1;stroke-width:1;stroke-linecap:butt;stroke-linejoin:miter;stroke:rgb(0%,0%,0%);stroke-opacity:1;stroke-miterlimit:10;" d="M 60 170 L 66.179688 170 L 68.679688 164.121094 L 71.179688 170 L 77.359375 170 L 72.359375 173.632812 L 74.046875 180.203125 L 68.679688 176.570312 L 63.316406 180.203125 L 65.878906 173.632812 L 60 170 "/>
<path style="fill-rule:nonzero;fill:rgb(33%,80%,11%);fill-opacity:1;stroke-width:1;stroke-linecap:butt;stroke-linejoin:miter;stroke:rgb(0%,0%,0%);stroke-opacity:1;stroke-miterlimit:10;" d="M 250 170 L 311.804688 170 L 336.804688 111.222656 L 361.804688 170 L 423.605469 170 L 373.605469 206.328125 L 390.449219 272.042969 L 336.804688 235.714844 L 283.15625 272.042969 L 308.777344 206.328125 L 250 170 "/>
<path style="fill-rule:nonzero;fill:rgb(33%,80%,11%);fill-opacity:1;stroke-width:1;stroke-linecap:butt;stroke-linejoin:miter;stroke:rgb(0%,0%,0%);stroke-opacity:1;stroke-miterlimit:10;" d="M 440 170 L 501.804688 170 L 526.804688 111.222656 L 551.804688 170 L 613.605469 170 L 563.605469 206.328125 L 580.449219 272.042969 L 526.804688 235.714844 L 473.15625 272.042969 L 498.777344 206.328125 L 440 170 "/>
<path style="fill-rule:nonzero;fill:rgb(33%,80%,11%);fill-opacity:1;stroke-width:1;stroke-linecap:butt;stroke-linejoin:miter;stroke:rgb(0%,0%,0%);stroke-opacity:1;stroke-miterlimit:10;" d="M 630 170 L 648.542969 170 L 656.042969 152.367188 L 663.542969 170 L 682.082031 170 L 667.082031 180.898438 L 672.136719 200.613281 L 656.042969 189.714844 L 639.945312 200.613281 L 647.632812 180.898438 L 630 170 "/>
<path style="fill-rule:nonzero;fill:rgb(33%,80%,11%);fill-opacity:1;stroke-width:1;stroke-linecap:butt;stroke-linejoin:miter;stroke:rgb(0%,0%,0%);stroke-opacity:1;stroke-miterlimit:10;" d="M 835 210 L 857.5 165 L 880 210 L 835 210 "/>
<path style="fill-rule:nonzero;fill:rgb(33%,80%,11%);fill-opacity:1;stroke-width:1;stroke-linecap:butt;stroke-linejoin:miter;stroke:rgb(0%,0%,0%);stroke-opacity:1;stroke-miterlimit:10;" d="M 1010 170 L 1065.625 170 L 1088.125 117.097656 L 1110.625 170 L 1166.246094 170 L 1121.246094 202.695312 L 1136.40625 261.839844 L 1088.125 229.144531 L 1039.839844 261.839844 L 1062.902344 202.695312 L 1010 170 "/>
</g>
</svg>
