<?xml version="1.0" encoding="UTF-8"?>
<svg xmlns="http://www.w3.org/2000/svg" xmlns:xlink="http://www.w3.org/1999/xlink" width="1240pt" height="300pt" viewBox="0 0 1240 300" version="1.1">
<g id="surface486">
<rect x="0" y="0" width="1240" height="300" style="fill:rgb(90%,90%,90%);fill-opacity:1;stroke:none;"/>
<path style="fill:none;stroke-width:5;stroke-linecap:butt;stroke-linejoin:miter;stroke:rgb(100%,0%,0%);stroke-opacity:1;stroke-miterlimit:10;" d="M 1000 270 L 1190 270 L 1190 70 L 1000 70 Z M 1000 270 "/>
<path style="fill-rule:nonzero;fill:rgb(55%,51%,53%);fill-opacity:1;stroke-width:1;stroke-linecap:butt;stroke-linejoin:miter;stroke:rgb(0%,0%,0%);stroke-opacity:1;stroke-miterlimit:10;" d="M 215 170 C 215 208.660156 183.660156 240 145 240 C 106.339844 240 75 208.660156 75 170 C 75 131.339844 106.339844 100 145 100 C 183.660156 100 215 131.339844 215 170 "/>
<path style="fill-rule:nonzero;fill:rgb(55%,51%,53%);fill-opacity:1;stroke-width:1;stroke-linecap:butt;stroke-linejoin:miter;stroke:rgb(0%,0%,0%);stroke-opacity:1;stroke-miterlimit:10;" d="M 335 170 L 347.359375 170 L 352.359375 158.246094 L 357.359375 170 L 369.722656 170 L 359.722656 177.265625 L 363.089844 190.410156 L 352.359375 183.144531 L 341.632812 190.410156 L 346.753906 177.265625 L 335 170 "/>
<path style="fill-rule:nonzero;fill:rgb(0%,0%,0%);fill-opacity:1;stroke-width:1;stroke-linecap:butt;stroke-linejoin:miter;stroke:rgb(0%,0%,0%);stroke-opacity:1;stroke-miterlimit:10;" d="M 595 170 C 595 208.660156 563.660156 240 525 240 C 486.339844 240 455 208.660156 455 170 C 455 131.339844 486.339844 100 525 100 C 563.660156 100 595 131.339844 595 170 "/>
<path style="fill-rule:nonzero;fill:rgb(55%,14%,14%);fill-opacity:1;stroke-width:1;stroke-linecap:butt;stroke-linejoin:miter;stroke:rgb(0%,0%,0%);stroke-opacity:1;stroke-miterlimit:10;" d="M 715 170 L 727.359375 170 L 732.359375 158.246094 L 737.359375 170 L 749.722656 170 L 739.722656 177.265625 L 743.089844 190.410156 L 732.359375 183.144531 L 721.632812 190.410156 L 726.753906 177.265625 L 715 170 "/>
<path style="fill-rule:nonzero;fill:rgb(67%,100%,18%);fill-opacity:1;stroke-width:1;stroke-linecap:butt;stroke-linejoin:miter;stroke:rgb(0%,0%,0%);stroke-opacity:1;stroke-miterlimit:10;" d="M 915.5 170 C 915.5 175.800781 910.800781 180.5 905 180.5 C 899.199219 180.5 894.5 175.800781 894.5 170 C 894.5 164.199219 899.199219 159.5 905 159.5 C 910.800781 159.5 915.5 164.199219 915.5 170 "/>
<path style="fill-rule:nonzero;fill:rgb(35%,70%,90%);fill-opacity:1;stroke-width:1;stroke-linecap:butt;stroke-linejoin:miter;stroke:rgb(0%,0%,0%);stroke-opacity:1;stroke-miterlimit:10;" d="M 1010 150 L 1071.804688 150 L 1096.804688 91.222656 L 1121.804688 150 L 1183.605469 150 L 1133.605469 186.328125 L 1150.449219 252.042969 L 1096.804688 215.714844 L 1043.15625 252.042969 L 1068.777344 186.328125 L 1010 150 "/>
</g>
</svg>
