<?xml version="1.0" encoding="UTF-8"?>
<svg xmlns="http://www.w3.org/2000/svg" xmlns:xlink="http://www.w3.org/1999/xlink" width="1240pt" height="300pt" viewBox="0 0 1240 300" version="1.1">
<g id="surface656">
<rect x="0" y="0" width="1240" height="300" style="fill:rgb(90%,90%,90%);fill-opacity:1;stroke:none;"/>
<path style=" stroke:none;fill-rule:nonzero;fill:rgb(90%,50%,50%);fill-opacity:0.5;" d="M 810 270 L 1000 270 L 1000 30 L 810 30 Z M 810 270 "/>
<path style="fill-rule:nonzero;fill:rgb(90%,65%,0%);fill-opacity:1;stroke-width:1;stroke-linecap:butt;stroke-linejoin:miter;stroke:rgb(0%,0%,0%);stroke-opacity:1;stroke-miterlimit:10;" d="M 150 170 C 150 165.5 142.5 165.5 142.5 170 C 142.5 174.5 150 175.25 150 179 C 150 175.25 157.5 174.5 157.5 170 C 157.5 165.5 150 165.5 150 170 "/>
<path style="fill-rule:nonzero;fill:rgb(65%,16%,16%);fill-opacity:1;stroke-width:1;stroke-linecap:butt;stroke-linejoin:miter;stroke:rgb(0%,0%,0%);stroke-opacity:1;stroke-miterlimit:10;" d="M 340 170 C 340 165.5 332.5 165.5 332.5 170 C 332.5 174.5 340 175.25 340 179 C 340 175.25 347.5 174.5 347.5 170 C 347.5 165.5 340 165.5 340 170 "/>
<path style="fill-rule:nonzero;fill:rgb(90%,65%,0%);fill-opacity:1;stroke-width:1;stroke-linecap:butt;stroke-linejoin:miter;stroke:rgb(0%,0%,0%);stroke-opacity:1;stroke-miterlimit:10;" d="M 530 170 C 530 156.5 507.5 156.5 507.5 170 C 507.5 183.5 530 185.75 530 197 C 530 185.75 552.5 183.5 552.5 170 C 552.5 156.5 530 156.5 530 170 "/>
<path style="fill-rule:nonzero;fill:rgb(90%,65%,0%);fill-opacity:1;stroke-width:1;stroke-linecap:butt;stroke-linejoin:miter;stroke:rgb(0%,0%,0%);stroke-opacity:1;stroke-miterlimit:10;" d="M 720 170 C 720 165.5 712.5 165.5 712.5 170 C 712.5 174.5 720 175.25 720 179 C 720 175.25 727.5 174.5 727.5 170 C 727.5 165.5 720 165.5 720 170 "/>
<path style="fill-rule:nonzero;fill:rgb(90%,65%,0%);fill-opacity:1;stroke-width:1;stroke-linecap:butt;stroke-linejoin:miter;stroke:rgb(0%,0%,0%);stroke-opacity:1;stroke-miterlimit:10;" d="M 835 210 L 857.5 165 L 880 210 L 835 210 "/>
<path style="fill-rule:nonzero;fill:rgb(90%,65%,0%);fill-opacity:1;stroke-width:1;stroke-linecap:butt;stroke-linejoin:miter;stroke:rgb(0%,0%,0%);stroke-opacity:1;stroke-miterlimit:10;" d="M 1100 170 C 1100 165.5 1092.5 165.5 1092.5 170 C 1092.5 174.5 1100 175.25 1100 179 C 1100 175.25 1107.5 174.5 1107.5 170 C 1107.5 165.5 1100 165.5 1100 170 "/>
</g>
</svg>
