<?xml version="1.0" encoding="UTF-8"?>
<svg xmlns="http://www.w3.org/2000/svg" xmlns:xlink="http://www.w3.org/1999/xlink" width="1240pt" height="300pt" viewBox="0 0 1240 300" version="1.1">
<g id="surface5976">
<rect x="0" y="0" width="1240" height="300" style="fill:rgb(90%,90%,90%);fill-opacity:1;stroke:none;"/>
<path style=" stroke:none;fill-rule:nonzero;fill:rgb(90%,50%,50%);fill-opacity:0.5;" d="M 50 270 L 240 270 L 240 30 L 50 30 Z M 50 270 "/>
<path style="fill:none;stroke-width:15;stroke-linecap:butt;stroke-linejoin:miter;stroke:rgb(0%,0%,0%);stroke-opacity:1;stroke-miterlimit:10;" d="M 60 220 C 109.421875 142.210938 137.027344 142.210938 186.449219 64.417969 "/>
<path style="fill:none;stroke-width:15;stroke-linecap:butt;stroke-linejoin:miter;stroke:rgb(35%,70%,90%);stroke-opacity:1;stroke-miterlimit:10;" d="M 250 220 C 253.582031 209.433594 261.226563 209.433594 264.808594 198.863281 "/>
<path style="fill:none;stroke-width:15;stroke-linecap:butt;stroke-linejoin:miter;stroke:rgb(35%,70%,90%);stroke-opacity:1;stroke-miterlimit:10;" d="M 440 220 C 496.433594 162.566406 526.222656 162.566406 582.65625 105.132813 "/>
<path style="fill:none;stroke-width:15;stroke-linecap:butt;stroke-linejoin:miter;stroke:rgb(35%,70%,90%);stroke-opacity:1;stroke-miterlimit:10;" d="M 630 220 C 635.429688 205.976563 643.617188 205.976563 649.046875 191.949219 "/>
<path style="fill:none;stroke-width:15;stroke-linecap:butt;stroke-linejoin:miter;stroke:rgb(35%,70%,90%);stroke-opacity:1;stroke-miterlimit:10;" d="M 820 220 C 832.238281 209.300781 833.71875 209.300781 845.957031 198.605469 "/>
<path style="fill:none;stroke-width:15;stroke-linecap:butt;stroke-linejoin:miter;stroke:rgb(35%,70%,90%);stroke-opacity:1;stroke-miterlimit:10;" d="M 1010 220 C 1060.449219 153.664063 1095.976563 153.664063 1146.429688 87.328125 "/>
</g>
</svg>
