<?xml version="1.0" encoding="UTF-8"?>
<svg xmlns="http://www.w3.org/2000/svg" xmlns:xlink="http://www.w3.org/1999/xlink" width="1240pt" height="300pt" viewBox="0 0 1240 300" version="1.1">
<g id="surface5091">
<rect x="0" y="0" width="1240" height="300" style="fill:rgb(90%,90%,90%);fill-opacity:1;stroke:none;"/>
<path style=" stroke:none;fill-rule:nonzero;fill:rgb(90%,50%,50%);fill-opacity:0.5;" d="M 50 270 L 240 270 L 240 30 L 50 30 Z M 50 270 "/>
<path style="fill:none;stroke-width:15;stroke-linecap:butt;stroke-linejoin:miter;stroke:rgb(35%,70%,90%);stroke-opacity:1;stroke-miterlimit:10;" d="M 60 220 C 123.453125 152.894531 158.359375 152.894531 221.8125 85.789063 "/>
<path style="fill:none;stroke-width:15;stroke-linecap:butt;stroke-linejoin:miter;stroke:rgb(35%,70%,90%);stroke-opacity:1;stroke-miterlimit:10;" d="M 250 220 C 267.542969 208.121094 271.730469 208.121094 289.273438 196.246094 "/>
<path style="fill:none;stroke-width:15;stroke-linecap:butt;stroke-linejoin:miter;stroke:rgb(90%,65%,0%);stroke-opacity:1;stroke-miterlimit:10;" d="M 440 220 C 475.953125 166.125 508.625 166.125 544.578125 112.253906 "/>
<path style="fill:none;stroke-width:15;stroke-linecap:butt;stroke-linejoin:miter;stroke:rgb(35%,70%,90%);stroke-opacity:1;stroke-miterlimit:10;" d="M 630 220 C 671.398438 186.371094 683.042969 186.371094 724.441406 152.746094 "/>
<path style="fill:none;stroke-width:15;stroke-linecap:butt;stroke-linejoin:miter;stroke:rgb(90%,65%,0%);stroke-opacity:1;stroke-miterlimit:10;" d="M 820 220 C 836.371094 174.375 867.230469 174.375 883.597656 128.75 "/>
<path style="fill:none;stroke-width:15;stroke-linecap:butt;stroke-linejoin:miter;stroke:rgb(90%,65%,0%);stroke-opacity:1;stroke-miterlimit:10;" d="M 1010 220 C 1037.796875 195.820313 1053.203125 195.820313 1081 171.640625 "/>
</g>
</svg>
