<?xml version="1.0" encoding="UTF-8"?>
<svg xmlns="http://www.w3.org/2000/svg" xmlns:xlink="http://www.w3.org/1999/xlink" width="1240pt" height="300pt" viewBox="0 0 1240 300" version="1.1">
<g id="surface4176">
<rect x="0" y="0" width="1240" height="300" style="fill:rgb(90%,90%,90%);fill-opacity:1;stroke:none;"/>
<path style=" stroke:none;fill-rule:nonzero;fill:rgb(90%,50%,50%);fill-opacity:0.5;" d="M 430 270 L 620 270 L 620 30 L 430 30 Z M 430 270 "/>
<path style="fill:none;stroke-width:15;stroke-linecap:butt;stroke-linejoin:miter;stroke:rgb(35%,70%,90%);stroke-opacity:1;stroke-miterlimit:10;" d="M 60 220 C 63.304688 195.53125 88.132813 195.53125 91.4375 171.0625 "/>
<path style="fill:none;stroke-width:15;stroke-linecap:butt;stroke-linejoin:miter;stroke:rgb(35%,70%,90%);stroke-opacity:1;stroke-miterlimit:10;" d="M 250 220 C 278.820313 192.457031 289.066406 192.457031 317.882813 164.917969 "/>
<path style="fill:none;stroke-width:5;stroke-linecap:butt;stroke-linejoin:miter;stroke:rgb(0%,0%,0%);stroke-opacity:1;stroke-miterlimit:10;" d="M 440 220 C 479.472656 160.402344 513.976563 160.402344 553.453125 100.804688 "/>
<path style="fill:none;stroke-width:5;stroke-linecap:butt;stroke-linejoin:miter;stroke:rgb(35%,70%,90%);stroke-opacity:1;stroke-miterlimit:10;" d="M 630 220 C 645.5625 182.769531 668.507813 182.769531 684.070313 145.539063 "/>
<path style="fill:none;stroke-width:5;stroke-linecap:butt;stroke-linejoin:miter;stroke:rgb(35%,70%,90%);stroke-opacity:1;stroke-miterlimit:10;" d="M 820 220 C 830.046875 187.121094 848.6875 187.121094 858.734375 154.246094 "/>
<path style="fill:none;stroke-width:5;stroke-linecap:butt;stroke-linejoin:miter;stroke:rgb(35%,70%,90%);stroke-opacity:1;stroke-miterlimit:10;" d="M 1010 220 C 1024.101563 194.019531 1038.644531 194.019531 1052.746094 168.042969 "/>
</g>
</svg>
