<?xml version="1.0" encoding="UTF-8"?>
<svg xmlns="http://www.w3.org/2000/svg" xmlns:xlink="http://www.w3.org/1999/xlink" width="1240pt" height="300pt" viewBox="0 0 1240 300" version="1.1">
<g id="surface456">
<rect x="0" y="0" width="1240" height="300" style="fill:rgb(90%,90%,90%);fill-opacity:1;stroke:none;"/>
<path style=" stroke:none;fill-rule:nonzero;fill:rgb(90%,50%,50%);fill-opacity:0.5;" d="M 620 270 L 810 270 L 810 30 L 620 30 Z M 620 270 "/>
<path style="fill-rule:nonzero;fill:rgb(90%,65%,0%);fill-opacity:1;stroke-width:1;stroke-linecap:butt;stroke-linejoin:miter;stroke:rgb(0%,0%,0%);stroke-opacity:1;stroke-miterlimit:10;" d="M 60 170 L 66.179688 170 L 68.679688 164.121094 L 71.179688 170 L 77.359375 170 L 72.359375 173.632812 L 74.046875 180.203125 L 68.679688 176.570312 L 63.316406 180.203125 L 65.878906 173.632812 L 60 170 "/>
<path style="fill-rule:nonzero;fill:rgb(35%,70%,90%);fill-opacity:1;stroke-width:1;stroke-linecap:butt;stroke-linejoin:miter;stroke:rgb(0%,0%,0%);stroke-opacity:1;stroke-miterlimit:10;" d="M 265 210 L 298.75 142.5 L 332.5 210 L 265 210 "/>
<path style="fill-rule:nonzero;fill:rgb(65%,16%,16%);fill-opacity:1;stroke-width:1;stroke-linecap:butt;stroke-linejoin:miter;stroke:rgb(0%,0%,0%);stroke-opacity:1;stroke-miterlimit:10;" d="M 455 210 L 477.5 165 L 500 210 L 455 210 "/>
<path style="fill-rule:nonzero;fill:rgb(65%,16%,16%);fill-opacity:1;stroke-width:1;stroke-linecap:butt;stroke-linejoin:miter;stroke:rgb(0%,0%,0%);stroke-opacity:1;stroke-miterlimit:10;" d="M 645 210 L 720 60 L 795 210 L 645 210 "/>
<path style="fill-rule:nonzero;fill:rgb(65%,16%,16%);fill-opacity:1;stroke-width:1;stroke-linecap:butt;stroke-linejoin:miter;stroke:rgb(0%,0%,0%);stroke-opacity:1;stroke-miterlimit:10;" d="M 835 210 L 868.75 142.5 L 902.5 210 L 835 210 "/>
<path style="fill-rule:nonzero;fill:rgb(90%,65%,0%);fill-opacity:1;stroke-width:1;stroke-linecap:butt;stroke-linejoin:miter;stroke:rgb(0%,0%,0%);stroke-opacity:1;stroke-miterlimit:10;" d="M 1025 210 L 1036.25 187.5 L 1047.5 210 L 1025 210 "/>
</g>
</svg>
