<?xml version="1.0" encoding="UTF-8"?>
<svg xmlns="http://www.w3.org/2000/svg" xmlns:xlink="http://www.w3.org/1999/xlink" width="1240pt" height="300pt" viewBox="0 0 1240 300" version="1.1">
<g id="surface406">
<rect x="0" y="0" width="1240" height="300" style="fill:rgb(90%,90%,90%);fill-opacity:1;stroke:none;"/>
<path style=" stroke:none;fill-rule:nonzero;fill:rgb(90%,50%,50%);fill-opacity:0.5;" d="M 620 270 L 810 270 L 810 30 L 620 30 Z M 620 270 "/>
<path style="fill-rule:nonzero;fill:rgb(65%,16%,16%);fill-opacity:1;stroke-width:1;stroke-linecap:butt;stroke-linejoin:miter;stroke:rgb(0%,0%,0%);stroke-opacity:1;stroke-miterlimit:10;" d="M 176.5 170 C 176.5 187.398438 162.398438 201.5 145 201.5 C 127.601562 201.5 113.5 187.398438 113.5 170 C 113.5 152.601562 127.601562 138.5 145 138.5 C 162.398438 138.5 176.5 152.601562 176.5 170 "/>
<path style="fill-rule:nonzero;fill:rgb(65%,16%,16%);fill-opacity:1;stroke-width:1;stroke-linecap:butt;stroke-linejoin:miter;stroke:rgb(0%,0%,0%);stroke-opacity:1;stroke-miterlimit:10;" d="M 335 154 L 351 170 L 335 186 L 319 170 Z M 335 154 "/>
<path style="fill-rule:nonzero;fill:rgb(33%,80%,11%);fill-opacity:1;stroke-width:1;stroke-linecap:butt;stroke-linejoin:miter;stroke:rgb(0%,0%,0%);stroke-opacity:1;stroke-miterlimit:10;" d="M 440 170 L 458.542969 170 L 466.042969 152.367188 L 473.542969 170 L 492.082031 170 L 477.082031 180.898438 L 482.136719 200.613281 L 466.042969 189.714844 L 449.945312 200.613281 L 457.632812 180.898438 L 440 170 "/>
<path style="fill-rule:nonzero;fill:rgb(65%,16%,16%);fill-opacity:1;stroke-width:1;stroke-linecap:butt;stroke-linejoin:miter;stroke:rgb(0%,0%,0%);stroke-opacity:1;stroke-miterlimit:10;" d="M 645 210 L 720 60 L 795 210 L 645 210 "/>
<path style="fill-rule:nonzero;fill:rgb(65%,16%,16%);fill-opacity:1;stroke-width:1;stroke-linecap:butt;stroke-linejoin:miter;stroke:rgb(0%,0%,0%);stroke-opacity:1;stroke-miterlimit:10;" d="M 905 154 L 921 170 L 905 186 L 889 170 Z M 905 154 "/>
<path style="fill-rule:nonzero;fill:rgb(65%,16%,16%);fill-opacity:1;stroke-width:1;stroke-linecap:butt;stroke-linejoin:miter;stroke:rgb(0%,0%,0%);stroke-opacity:1;stroke-miterlimit:10;" d="M 1050 140 L 1104 140 L 1104 194 L 1050 194 Z M 1050 140 "/>
</g>
</svg>
