<?xml version="1.0" encoding="UTF-8"?>
<svg xmlns="http://www.w3.org/2000/svg" xmlns:xlink="http://www.w3.org/1999/xlink" width="1240pt" height="300pt" viewBox="0 0 1240 300" version="1.1">
<g id="surface466">
<rect x="0" y="0" width="1240" height="300" style="fill:rgb(90%,90%,90%);fill-opacity:1;stroke:none;"/>
<path style="fill:none;stroke-width:5;stroke-linecap:butt;stroke-linejoin:miter;stroke:rgb(100%,0%,0%);stroke-opacity:1;stroke-miterlimit:10;" d="M 1000 270 L 1190 270 L 1190 70 L 1000 70 Z M 1000 270 "/>
<path style="fill-rule:nonzero;fill:rgb(90%,65%,0%);fill-opacity:1;stroke-width:1;stroke-linecap:butt;stroke-linejoin:miter;stroke:rgb(0%,0%,0%);stroke-opacity:1;stroke-miterlimit:10;" d="M 166 170 C 166 181.597656 156.597656 191 145 191 C 133.402344 191 124 181.597656 124 170 C 124 158.402344 133.402344 149 145 149 C 156.597656 149 166 158.402344 166 170 "/>
<path style="fill-rule:nonzero;fill:rgb(90%,65%,0%);fill-opacity:1;stroke-width:1;stroke-linecap:butt;stroke-linejoin:miter;stroke:rgb(0%,0%,0%);stroke-opacity:1;stroke-miterlimit:10;" d="M 345.5 170 C 345.5 175.800781 340.800781 180.5 335 180.5 C 329.199219 180.5 324.5 175.800781 324.5 170 C 324.5 164.199219 329.199219 159.5 335 159.5 C 340.800781 159.5 345.5 164.199219 345.5 170 "/>
<path style="fill-rule:nonzero;fill:rgb(90%,65%,0%);fill-opacity:1;stroke-width:1;stroke-linecap:butt;stroke-linejoin:miter;stroke:rgb(0%,0%,0%);stroke-opacity:1;stroke-miterlimit:10;" d="M 595 170 C 595 208.660156 563.660156 240 525 240 C 486.339844 240 455 208.660156 455 170 C 455 131.339844 486.339844 100 525 100 C 563.660156 100 595 131.339844 595 170 "/>
<path style="fill-rule:nonzero;fill:rgb(90%,65%,0%);fill-opacity:1;stroke-width:1;stroke-linecap:butt;stroke-linejoin:miter;stroke:rgb(0%,0%,0%);stroke-opacity:1;stroke-miterlimit:10;" d="M 715 90 L 795 170 L 715 250 L 635 170 Z M 715 90 "/>
<path style="fill-rule:nonzero;fill:rgb(90%,65%,0%);fill-opacity:1;stroke-width:1;stroke-linecap:butt;stroke-linejoin:miter;stroke:rgb(0%,0%,0%);stroke-opacity:1;stroke-miterlimit:10;" d="M 915.5 170 C 915.5 175.800781 910.800781 180.5 905 180.5 C 899.199219 180.5 894.5 175.800781 894.5 170 C 894.5 164.199219 899.199219 159.5 905 159.5 C 910.800781 159.5 915.5 164.199219 915.5 170 "/>
<path style="fill-rule:nonzero;fill:rgb(55%,14%,14%);fill-opacity:1;stroke-width:1;stroke-linecap:butt;stroke-linejoin:miter;stroke:rgb(0%,0%,0%);stroke-opacity:1;stroke-miterlimit:10;" d="M 1165 170 C 1165 208.660156 1133.660156 240 1095 240 C 1056.339844 240 1025 208.660156 1025 170 C 1025 131.339844 1056.339844 100 1095 100 C 1133.660156 100 1165 131.339844 1165 170 "/>
</g>
</svg>
