<?xml version="1.0" encoding="UTF-8"?>
<svg xmlns="http://www.w3.org/2000/svg" xmlns:xlink="http://www.w3.org/1999/xlink" width="1240pt" height="300pt" viewBox="0 0 1240 300" version="1.1">
<g id="surface3266">
<rect x="0" y="0" width="1240" height="300" style="fill:rgb(90%,90%,90%);fill-opacity:1;stroke:none;"/>
<path style=" stroke:none;fill-rule:nonzero;fill:rgb(90%,50%,50%);fill-opacity:0.5;" d="M 1000 270 L 1190 270 L 1190 30 L 1000 30 Z M 1000 270 "/>
<path style="fill:none;stroke-width:15;stroke-linecap:butt;stroke-linejoin:miter;stroke:rgb(0%,0%,0%);stroke-opacity:1;stroke-miterlimit:10;" d="M 60 220 C 85.445313 203.867188 89.625 203.867188 115.070313 187.738281 "/>
<path style="fill:none;stroke-width:15;stroke-linecap:butt;stroke-linejoin:miter;stroke:rgb(0%,0%,0%);stroke-opacity:1;stroke-miterlimit:10;" d="M 250 220 C 270.238281 162.183594 304.683594 162.183594 324.917969 104.363281 "/>
<path style="fill:none;stroke-width:15;stroke-linecap:butt;stroke-linejoin:miter;stroke:rgb(0%,0%,0%);stroke-opacity:1;stroke-miterlimit:10;" d="M 440 220 C 454.628906 206 457.183594 206 471.816406 192 "/>
<path style="fill:none;stroke-width:15;stroke-linecap:butt;stroke-linejoin:miter;stroke:rgb(0%,0%,0%);stroke-opacity:1;stroke-miterlimit:10;" d="M 630 220 C 630.875 163.257813 685.921875 163.257813 686.796875 106.515625 "/>
<path style="fill:none;stroke-width:15;stroke-linecap:butt;stroke-linejoin:miter;stroke:rgb(0%,0%,0%);stroke-opacity:1;stroke-miterlimit:10;" d="M 820 220 C 841.476563 207.542969 846.757813 207.542969 868.234375 195.089844 "/>
<path style="fill:none;stroke-width:15;stroke-linecap:butt;stroke-linejoin:miter;stroke:rgb(0%,0%,0%);stroke-opacity:1;stroke-miterlimit:10;" d="M 1010 220 C 1061.386719 156.117188 1085.820313 156.117188 1137.207031 92.230469 "/>
</g>
</svg>
