<?xml version="1.0" encoding="UTF-8"?>
<svg xmlns="http://www.w3.org/2000/svg" xmlns:xlink="http://www.w3.org/1999/xlink" width="860pt" height="300pt" viewBox="0 0 860 300" version="1.1">
<g id="surface1">
<rect x="0" y="0" width="860" height="300" style="fill:rgb(90%,90%,90%);fill-opacity:1;stroke:none;"/>
<path style=" stroke:none;fill-rule:nonzero;fill:rgb(90%,50%,50%);fill-opacity:0.5;" d="M 620 270 L 810 270 L 810 30 L 620 30 Z M 620 270 "/>
<path style="fill-rule:nonzero;fill:rgb(65%,16%,16%);fill-opacity:1;stroke-width:1;stroke-linecap:butt;stroke-linejoin:miter;stroke:rgb(0%,0%,0%);stroke-opacity:1;stroke-miterlimit:10;" d="M 140 175 C 140 139 80 139 80 175 C 80 211 140 217 140 247 C 140 217 200 211 200 175 C 200 139 140 139 140 175 "/>
<path style="fill-rule:nonzero;fill:rgb(55%,51%,53%);fill-opacity:1;stroke-width:1;stroke-linecap:butt;stroke-linejoin:miter;stroke:rgb(0%,0%,0%);stroke-opacity:1;stroke-miterlimit:10;" d="M 330 175 C 330 139 270 139 270 175 C 270 211 330 217 330 247 C 330 217 390 211 390 175 C 390 139 330 139 330 175 "/>
<path style="fill-rule:nonzero;fill:rgb(33%,80%,11%);fill-opacity:1;stroke-width:1;stroke-linecap:butt;stroke-linejoin:miter;stroke:rgb(0%,0%,0%);stroke-opacity:1;stroke-miterlimit:10;" d="M 520 175 C 520 139 460 139 460 175 C 460 211 520 217 520 247 C 520 217 580 211 580 175 C 580 139 520 139 520 175 "/>
<path style="fill-rule:nonzero;fill:rgb(80%,6%,80%);fill-opacity:1;stroke-width:1;stroke-linecap:butt;stroke-linejoin:miter;stroke:rgb(0%,0%,0%);stroke-opacity:1;stroke-miterlimit:10;" d="M 710 175 C 710 139 650 139 650 175 C 650 211 710 217 710 247 C 710 217 770 211 770 175 C 770 139 710 139 710 175 "/>
</g>
</svg>
