<?xml version="1.0" encoding="UTF-8"?>
<svg xmlns="http://www.w3.org/2000/svg" xmlns:xlink="http://www.w3.org/1999/xlink" width="1240pt" height="300pt" viewBox="0 0 1240 300" version="1.1">
<g id="surface5056">
<rect x="0" y="0" width="1240" height="300" style="fill:rgb(90%,90%,90%);fill-opacity:1;stroke:none;"/>
<path style=" stroke:none;fill-rule:nonzero;fill:rgb(90%,50%,50%);fill-opacity:0.5;" d="M 240 270 L 430 270 L 430 30 L 240 30 Z M 240 270 "/>
<path style="fill:none;stroke-width:5;stroke-linecap:butt;stroke-linejoin:miter;stroke:rgb(35%,70%,90%);stroke-opacity:1;stroke-miterlimit:10;" d="M 60 220 C 72.554688 190.964844 94.921875 190.964844 107.476563 161.929688 "/>
<path style="fill:none;stroke-width:5;stroke-linecap:butt;stroke-linejoin:miter;stroke:rgb(90%,65%,0%);stroke-opacity:1;stroke-miterlimit:10;" d="M 250 220 C 271.476563 130.824219 340.042969 130.824219 361.519531 41.648438 "/>
<path style="fill:none;stroke-width:5;stroke-linecap:butt;stroke-linejoin:miter;stroke:rgb(90%,65%,0%);stroke-opacity:1;stroke-miterlimit:10;" d="M 440 220 C 455.21875 171.394531 492.878906 171.394531 508.097656 122.789063 "/>
<path style="fill:none;stroke-width:5;stroke-linecap:butt;stroke-linejoin:miter;stroke:rgb(90%,65%,0%);stroke-opacity:1;stroke-miterlimit:10;" d="M 630 220 C 638.738281 203.273438 647.640625 203.273438 656.378906 186.546875 "/>
<path style="fill:none;stroke-width:5;stroke-linecap:butt;stroke-linejoin:miter;stroke:rgb(35%,70%,90%);stroke-opacity:1;stroke-miterlimit:10;" d="M 820 220 C 828.464844 181.589844 861.296875 181.589844 869.761719 143.179688 "/>
<path style="fill:none;stroke-width:5;stroke-linecap:butt;stroke-linejoin:miter;stroke:rgb(35%,70%,90%);stroke-opacity:1;stroke-miterlimit:10;" d="M 1010 220 C 1030.433594 180.078125 1051.183594 180.078125 1071.617188 140.15625 "/>
</g>
</svg>
