<?xml version="1.0" encoding="UTF-8"?>
<svg xmlns="http://www.w3.org/2000/svg" xmlns:xlink="http://www.w3.org/1999/xlink" width="1240pt" height="300pt" viewBox="0 0 1240 300" version="1.1">
<g id="surface581">
<rect x="0" y="0" width="1240" height="300" style="fill:rgb(90%,90%,90%);fill-opacity:1;stroke:none;"/>
<path style=" stroke:none;fill-rule:nonzero;fill:rgb(90%,50%,50%);fill-opacity:0.5;" d="M 240 270 L 430 270 L 430 30 L 240 30 Z M 240 270 "/>
<path style="fill-rule:nonzero;fill:rgb(33%,80%,11%);fill-opacity:1;stroke-width:1;stroke-linecap:butt;stroke-linejoin:miter;stroke:rgb(0%,0%,0%);stroke-opacity:1;stroke-miterlimit:10;" d="M 100 140 L 136 140 L 136 176 L 100 176 Z M 100 140 "/>
<path style="fill-rule:nonzero;fill:rgb(33%,80%,11%);fill-opacity:1;stroke-width:1;stroke-linecap:butt;stroke-linejoin:miter;stroke:rgb(0%,0%,0%);stroke-opacity:1;stroke-miterlimit:10;" d="M 250 170 L 305.625 170 L 328.125 117.097656 L 350.625 170 L 406.246094 170 L 361.246094 202.695312 L 376.40625 261.839844 L 328.125 229.144531 L 279.839844 261.839844 L 302.902344 202.695312 L 250 170 "/>
<path style="fill-rule:nonzero;fill:rgb(55%,51%,53%);fill-opacity:1;stroke-width:1;stroke-linecap:butt;stroke-linejoin:miter;stroke:rgb(0%,0%,0%);stroke-opacity:1;stroke-miterlimit:10;" d="M 440 170 L 495.625 170 L 518.125 117.097656 L 540.625 170 L 596.246094 170 L 551.246094 202.695312 L 566.40625 261.839844 L 518.125 229.144531 L 469.839844 261.839844 L 492.902344 202.695312 L 440 170 "/>
<path style="fill-rule:nonzero;fill:rgb(33%,80%,11%);fill-opacity:1;stroke-width:1;stroke-linecap:butt;stroke-linejoin:miter;stroke:rgb(0%,0%,0%);stroke-opacity:1;stroke-miterlimit:10;" d="M 670 140 L 724 140 L 724 194 L 670 194 Z M 670 140 "/>
<path style="fill-rule:nonzero;fill:rgb(55%,51%,53%);fill-opacity:1;stroke-width:1;stroke-linecap:butt;stroke-linejoin:miter;stroke:rgb(0%,0%,0%);stroke-opacity:1;stroke-miterlimit:10;" d="M 820 170 L 826.179688 170 L 828.679688 164.121094 L 831.179688 170 L 837.359375 170 L 832.359375 173.632812 L 834.046875 180.203125 L 828.679688 176.570312 L 823.316406 180.203125 L 825.878906 173.632812 L 820 170 "/>
<path style="fill-rule:nonzero;fill:rgb(55%,51%,53%);fill-opacity:1;stroke-width:1;stroke-linecap:butt;stroke-linejoin:miter;stroke:rgb(0%,0%,0%);stroke-opacity:1;stroke-miterlimit:10;" d="M 1050 140 L 1086 140 L 1086 176 L 1050 176 Z M 1050 140 "/>
</g>
</svg>
