<?xml version="1.0" encoding="UTF-8"?>
<svg xmlns="http://www.w3.org/2000/svg" xmlns:xlink="http://www.w3.org/1999/xlink" width="1240pt" height="300pt" viewBox="0 0 1240 300" version="1.1">
<g id="surface536">
<rect x="0" y="0" width="1240" height="300" style="fill:rgb(90%,90%,90%);fill-opacity:1;stroke:none;"/>
<path style="fill:none;stroke-width:5;stroke-linecap:butt;stroke-linejoin:miter;stroke:rgb(100%,0%,0%);stroke-opacity:1;stroke-miterlimit:10;" d="M 810 270 L 1000 270 L 1000 70 L 810 70 Z M 810 270 "/>
<path style="fill-rule:nonzero;fill:rgb(67%,100%,18%);fill-opacity:1;stroke-width:1;stroke-linecap:butt;stroke-linejoin:miter;stroke:rgb(0%,0%,0%);stroke-opacity:1;stroke-miterlimit:10;" d="M 166 170 C 166 181.597656 156.597656 191 145 191 C 133.402344 191 124 181.597656 124 170 C 124 158.402344 133.402344 149 145 149 C 156.597656 149 166 158.402344 166 170 "/>
<path style="fill-rule:nonzero;fill:rgb(55%,14%,14%);fill-opacity:1;stroke-width:1;stroke-linecap:butt;stroke-linejoin:miter;stroke:rgb(0%,0%,0%);stroke-opacity:1;stroke-miterlimit:10;" d="M 335 150 C 335 105 260 105 260 150 C 260 195 335 202.5 335 240 C 335 202.5 410 195 410 150 C 410 105 335 105 335 150 "/>
<path style="fill-rule:nonzero;fill:rgb(55%,14%,14%);fill-opacity:1;stroke-width:1;stroke-linecap:butt;stroke-linejoin:miter;stroke:rgb(0%,0%,0%);stroke-opacity:1;stroke-miterlimit:10;" d="M 525 170 C 525 165.5 517.5 165.5 517.5 170 C 517.5 174.5 525 175.25 525 179 C 525 175.25 532.5 174.5 532.5 170 C 532.5 165.5 525 165.5 525 170 "/>
<path style="fill-rule:nonzero;fill:rgb(67%,100%,18%);fill-opacity:1;stroke-width:1;stroke-linecap:butt;stroke-linejoin:miter;stroke:rgb(0%,0%,0%);stroke-opacity:1;stroke-miterlimit:10;" d="M 725.5 170 C 725.5 175.800781 720.800781 180.5 715 180.5 C 709.199219 180.5 704.5 175.800781 704.5 170 C 704.5 164.199219 709.199219 159.5 715 159.5 C 720.800781 159.5 725.5 164.199219 725.5 170 "/>
<path style="fill-rule:nonzero;fill:rgb(67%,100%,18%);fill-opacity:1;stroke-width:1;stroke-linecap:butt;stroke-linejoin:miter;stroke:rgb(0%,0%,0%);stroke-opacity:1;stroke-miterlimit:10;" d="M 905 150 C 905 109.5 837.5 109.5 837.5 150 C 837.5 190.5 905 197.25 905 231 C 905 197.25 972.5 190.5 972.5 150 C 972.5 109.5 905 109.5 905 150 "/>
<path style="fill-rule:nonzero;fill:rgb(55%,14%,14%);fill-opacity:1;stroke-width:1;stroke-linecap:butt;stroke-linejoin:miter;stroke:rgb(0%,0%,0%);stroke-opacity:1;stroke-miterlimit:10;" d="M 1126.5 170 C 1126.5 187.398438 1112.398438 201.5 1095 201.5 C 1077.601562 201.5 1063.5 187.398438 1063.5 170 C 1063.5 152.601562 1077.601562 138.5 1095 138.5 C 1112.398438 138.5 1126.5 152.601562 1126.5 170 "/>
</g>
</svg>
