<?xml version="1.0" encoding="UTF-8"?>
<svg xmlns="http://www.w3.org/2000/svg" xmlns:xlink="http://www.w3.org/1999/xlink" width="1240pt" height="300pt" viewBox="0 0 1240 300" version="1.1">
<g id="surface5066">
<rect x="0" y="0" width="1240" height="300" style="fill:rgb(90%,90%,90%);fill-opacity:1;stroke:none;"/>
<path style=" stroke:none;fill-rule:nonzero;fill:rgb(90%,50%,50%);fill-opacity:0.5;" d="M 810 270 L 1000 270 L 1000 30 L 810 30 Z M 810 270 "/>
<path style="fill:none;stroke-width:5;stroke-linecap:butt;stroke-linejoin:miter;stroke:rgb(35%,70%,90%);stroke-opacity:1;stroke-miterlimit:10;" d="M 60 220 C 82.203125 183.082031 96.015625 183.082031 118.214844 146.160156 "/>
<path style="fill:none;stroke-width:5;stroke-linecap:butt;stroke-linejoin:miter;stroke:rgb(90%,65%,0%);stroke-opacity:1;stroke-miterlimit:10;" d="M 250 220 C 254.925781 195.96875 278.523438 195.96875 283.453125 171.933594 "/>
<path style="fill:none;stroke-width:5;stroke-linecap:butt;stroke-linejoin:miter;stroke:rgb(35%,70%,90%);stroke-opacity:1;stroke-miterlimit:10;" d="M 440 220 C 443.839844 209.804688 451.8125 209.804688 455.652344 199.613281 "/>
<path style="fill:none;stroke-width:5;stroke-linecap:butt;stroke-linejoin:miter;stroke:rgb(90%,65%,0%);stroke-opacity:1;stroke-miterlimit:10;" d="M 630 220 C 668.285156 165.699219 694.648438 165.699219 732.933594 111.398438 "/>
<path style="fill:none;stroke-width:5;stroke-linecap:butt;stroke-linejoin:miter;stroke:rgb(35%,70%,90%);stroke-opacity:1;stroke-miterlimit:10;" d="M 820 220 C 889.894531 149.542969 910.339844 149.542969 980.234375 79.082031 "/>
<path style="fill:none;stroke-width:5;stroke-linecap:butt;stroke-linejoin:miter;stroke:rgb(90%,65%,0%);stroke-opacity:1;stroke-miterlimit:10;" d="M 1010 220 C 1034.167969 169.355469 1063.785156 169.355469 1087.953125 118.707031 "/>
</g>
</svg>
