<?xml version="1.0" encoding="UTF-8"?>
<svg xmlns="http://www.w3.org/2000/svg" xmlns:xlink="http://www.w3.org/1999/xlink" width="1240pt" height="300pt" viewBox="0 0 1240 300" version="1.1">
<g id="surface629">
<rect x="0" y="0" width="1240" height="300" style="fill:rgb(90%,90%,90%);fill-opacity:1;stroke:none;"/>
<path style="fill:none;stroke-width:5;stroke-linecap:butt;stroke-linejoin:miter;stroke:rgb(100%,0%,0%);stroke-opacity:1;stroke-miterlimit:10;" d="M 240 270 L 430 270 L 430 70 L 240 70 Z M 240 270 "/>
<path style="fill-rule:nonzero;fill:rgb(67%,100%,18%);fill-opacity:1;stroke-width:1;stroke-linecap:butt;stroke-linejoin:miter;stroke:rgb(0%,0%,0%);stroke-opacity:1;stroke-miterlimit:10;" d="M 176.5 170 C 176.5 187.398438 162.398438 201.5 145 201.5 C 127.601563 201.5 113.5 187.398438 113.5 170 C 113.5 152.601563 127.601563 138.5 145 138.5 C 162.398438 138.5 176.5 152.601563 176.5 170 "/>
<path style="fill-rule:nonzero;fill:rgb(35%,70%,90%);fill-opacity:1;stroke-width:1;stroke-linecap:butt;stroke-linejoin:miter;stroke:rgb(0%,0%,0%);stroke-opacity:1;stroke-miterlimit:10;" d="M 405 170 C 405 208.660156 373.660156 240 335 240 C 296.339844 240 265 208.660156 265 170 C 265 131.339844 296.339844 100 335 100 C 373.660156 100 405 131.339844 405 170 "/>
<path style="fill-rule:nonzero;fill:rgb(35%,70%,90%);fill-opacity:1;stroke-width:1;stroke-linecap:butt;stroke-linejoin:miter;stroke:rgb(0%,0%,0%);stroke-opacity:1;stroke-miterlimit:10;" d="M 525 170 C 525 156.5 502.5 156.5 502.5 170 C 502.5 183.5 525 185.75 525 197 C 525 185.75 547.5 183.5 547.5 170 C 547.5 156.5 525 156.5 525 170 "/>
<path style="fill-rule:nonzero;fill:rgb(35%,70%,90%);fill-opacity:1;stroke-width:1;stroke-linecap:butt;stroke-linejoin:miter;stroke:rgb(0%,0%,0%);stroke-opacity:1;stroke-miterlimit:10;" d="M 715 170 L 727.359375 170 L 732.359375 158.246094 L 737.359375 170 L 749.722656 170 L 739.722656 177.265625 L 743.089844 190.410156 L 732.359375 183.144531 L 721.632813 190.410156 L 726.753906 177.265625 L 715 170 "/>
<path style="fill-rule:nonzero;fill:rgb(35%,70%,90%);fill-opacity:1;stroke-width:1;stroke-linecap:butt;stroke-linejoin:miter;stroke:rgb(0%,0%,0%);stroke-opacity:1;stroke-miterlimit:10;" d="M 905 170 L 911.179688 170 L 913.679688 164.121094 L 916.179688 170 L 922.359375 170 L 917.359375 173.632813 L 919.046875 180.203125 L 913.679688 176.570313 L 908.316406 180.203125 L 910.878906 173.632813 L 905 170 "/>
<path style="fill-rule:nonzero;fill:rgb(35%,70%,90%);fill-opacity:1;stroke-width:1;stroke-linecap:butt;stroke-linejoin:miter;stroke:rgb(0%,0%,0%);stroke-opacity:1;stroke-miterlimit:10;" d="M 1095 167.007813 L 1083.75 186.496094 L 1106.25 186.496094 L 1095 167.007813 "/>
</g>
</svg>
