<?xml version="1.0" encoding="UTF-8"?>
<svg xmlns="http://www.w3.org/2000/svg" xmlns:xlink="http://www.w3.org/1999/xlink" width="1240pt" height="300pt" viewBox="0 0 1240 300" version="1.1">
<g id="surface1201">
<rect x="0" y="0" width="1240" height="300" style="fill:rgb(90%,90%,90%);fill-opacity:1;stroke:none;"/>
<path style="fill:none;stroke-width:5;stroke-linecap:butt;stroke-linejoin:miter;stroke:rgb(100%,0%,0%);stroke-opacity:1;stroke-miterlimit:10;" d="M 1000 270 L 1190 270 L 1190 70 L 1000 70 Z M 1000 270 "/>
<path style="fill-rule:nonzero;fill:rgb(67%,100%,18%);fill-opacity:1;stroke-width:1;stroke-linecap:butt;stroke-linejoin:miter;stroke:rgb(0%,0%,0%);stroke-opacity:1;stroke-miterlimit:10;" d="M 176.5 170 C 176.5 187.398438 162.398438 201.5 145 201.5 C 127.601563 201.5 113.5 187.398438 113.5 170 C 113.5 152.601563 127.601563 138.5 145 138.5 C 162.398438 138.5 176.5 152.601563 176.5 170 "/>
<path style="fill-rule:nonzero;fill:rgb(67%,100%,18%);fill-opacity:1;stroke-width:1;stroke-linecap:butt;stroke-linejoin:miter;stroke:rgb(0%,0%,0%);stroke-opacity:1;stroke-miterlimit:10;" d="M 366.5 170 C 366.5 187.398438 352.398438 201.5 335 201.5 C 317.601563 201.5 303.5 187.398438 303.5 170 C 303.5 152.601563 317.601563 138.5 335 138.5 C 352.398438 138.5 366.5 152.601563 366.5 170 "/>
<path style="fill-rule:nonzero;fill:rgb(55%,14%,14%);fill-opacity:1;stroke-width:1;stroke-linecap:butt;stroke-linejoin:miter;stroke:rgb(0%,0%,0%);stroke-opacity:1;stroke-miterlimit:10;" d="M 546 170 C 546 181.597656 536.597656 191 525 191 C 513.402344 191 504 181.597656 504 170 C 504 158.402344 513.402344 149 525 149 C 536.597656 149 546 158.402344 546 170 "/>
<path style="fill-rule:nonzero;fill:rgb(67%,100%,18%);fill-opacity:1;stroke-width:1;stroke-linecap:butt;stroke-linejoin:miter;stroke:rgb(0%,0%,0%);stroke-opacity:1;stroke-miterlimit:10;" d="M 725.5 170 C 725.5 175.800781 720.800781 180.5 715 180.5 C 709.199219 180.5 704.5 175.800781 704.5 170 C 704.5 164.199219 709.199219 159.5 715 159.5 C 720.800781 159.5 725.5 164.199219 725.5 170 "/>
<path style="fill-rule:nonzero;fill:rgb(67%,100%,18%);fill-opacity:1;stroke-width:1;stroke-linecap:butt;stroke-linejoin:miter;stroke:rgb(0%,0%,0%);stroke-opacity:1;stroke-miterlimit:10;" d="M 915.5 170 C 915.5 175.800781 910.800781 180.5 905 180.5 C 899.199219 180.5 894.5 175.800781 894.5 170 C 894.5 164.199219 899.199219 159.5 905 159.5 C 910.800781 159.5 915.5 164.199219 915.5 170 "/>
<path style="fill-rule:nonzero;fill:rgb(67%,100%,18%);fill-opacity:1;stroke-width:1;stroke-linecap:butt;stroke-linejoin:miter;stroke:rgb(0%,0%,0%);stroke-opacity:1;stroke-miterlimit:10;" d="M 1095 150 C 1095 109.5 1027.5 109.5 1027.5 150 C 1027.5 190.5 1095 197.25 1095 231 C 1095 197.25 1162.5 190.5 1162.5 150 C 1162.5 109.5 1095 109.5 1095 150 "/>
</g>
</svg>
