<?xml version="1.0" encoding="UTF-8"?>
<svg xmlns="http://www.w3.org/2000/svg" xmlns:xlink="http://www.w3.org/1999/xlink" width="1240pt" height="300pt" viewBox="0 0 1240 300" version="1.1">
<g id="surface2316">
<rect x="0" y="0" width="1240" height="300" style="fill:rgb(90%,90%,90%);fill-opacity:1;stroke:none;"/>
<path style=" stroke:none;fill-rule:nonzero;fill:rgb(90%,50%,50%);fill-opacity:0.5;" d="M 620 270 L 810 270 L 810 30 L 620 30 Z M 620 270 "/>
<path style="fill:none;stroke-width:5;stroke-linecap:butt;stroke-linejoin:miter;stroke:rgb(35%,70%,90%);stroke-opacity:1;stroke-miterlimit:10;" d="M 60 220 C 61.75 177.109375 98.285156 177.109375 100.039063 134.222656 "/>
<path style="fill:none;stroke-width:15;stroke-linecap:butt;stroke-linejoin:miter;stroke:rgb(35%,70%,90%);stroke-opacity:1;stroke-miterlimit:10;" d="M 250 220 C 259.105469 202.359375 269.378906 202.359375 278.484375 184.714844 "/>
<path style="fill:none;stroke-width:15;stroke-linecap:butt;stroke-linejoin:miter;stroke:rgb(35%,70%,90%);stroke-opacity:1;stroke-miterlimit:10;" d="M 440 220 C 458.257813 189.761719 477.394531 189.761719 495.652344 159.523438 "/>
<path style="fill:none;stroke-width:15;stroke-linecap:butt;stroke-linejoin:miter;stroke:rgb(0%,0%,0%);stroke-opacity:1;stroke-miterlimit:10;" d="M 630 220 C 655.757813 145.601563 709.382813 145.601563 735.140625 71.203125 "/>
<path style="fill:none;stroke-width:15;stroke-linecap:butt;stroke-linejoin:miter;stroke:rgb(35%,70%,90%);stroke-opacity:1;stroke-miterlimit:10;" d="M 820 220 C 829.277344 206.355469 836.261719 206.355469 845.539063 192.707031 "/>
<path style="fill:none;stroke-width:15;stroke-linecap:butt;stroke-linejoin:miter;stroke:rgb(35%,70%,90%);stroke-opacity:1;stroke-miterlimit:10;" d="M 1010 220 C 1030.804688 186.417969 1051.605469 186.417969 1072.410156 152.835938 "/>
</g>
</svg>
