<?xml version="1.0" encoding="UTF-8"?>
<svg xmlns="http://www.w3.org/2000/svg" xmlns:xlink="http://www.w3.org/1999/xlink" width="1240pt" height="300pt" viewBox="0 0 1240 300" version="1.1">
<g id="surface111">
<rect x="0" y="0" width="1240" height="300" style="fill:rgb(90%,90%,90%);fill-opacity:1;stroke:none;"/>
<path style=" stroke:none;fill-rule:nonzero;fill:rgb(90%,50%,50%);fill-opacity:0.5;" d="M 810 270 L 1000 270 L 1000 30 L 810 30 Z M 810 270 "/>
<path style="fill-rule:nonzero;fill:rgb(0%,0%,0%);fill-opacity:1;stroke-width:1;stroke-linecap:butt;stroke-linejoin:miter;stroke:rgb(0%,0%,0%);stroke-opacity:1;stroke-miterlimit:10;" d="M 60 170 L 115.625 170 L 138.125 117.097656 L 160.625 170 L 216.246094 170 L 171.246094 202.695312 L 186.40625 261.839844 L 138.125 229.144531 L 89.839844 261.839844 L 112.902344 202.695312 L 60 170 "/>
<path style="fill-rule:nonzero;fill:rgb(33%,80%,11%);fill-opacity:1;stroke-width:1;stroke-linecap:butt;stroke-linejoin:miter;stroke:rgb(0%,0%,0%);stroke-opacity:1;stroke-miterlimit:10;" d="M 250 170 L 305.625 170 L 328.125 117.097656 L 350.625 170 L 406.246094 170 L 361.246094 202.695312 L 376.40625 261.839844 L 328.125 229.144531 L 279.839844 261.839844 L 302.902344 202.695312 L 250 170 "/>
<path style="fill-rule:nonzero;fill:rgb(0%,0%,0%);fill-opacity:1;stroke-width:1;stroke-linecap:butt;stroke-linejoin:miter;stroke:rgb(0%,0%,0%);stroke-opacity:1;stroke-miterlimit:10;" d="M 440 170 L 452.359375 170 L 457.359375 158.246094 L 462.359375 170 L 474.722656 170 L 464.722656 177.265625 L 468.089844 190.410156 L 457.359375 183.144531 L 446.632812 190.410156 L 451.753906 177.265625 L 440 170 "/>
<path style="fill-rule:nonzero;fill:rgb(55%,51%,53%);fill-opacity:1;stroke-width:1;stroke-linecap:butt;stroke-linejoin:miter;stroke:rgb(0%,0%,0%);stroke-opacity:1;stroke-miterlimit:10;" d="M 630 170 L 685.625 170 L 708.125 117.097656 L 730.625 170 L 786.246094 170 L 741.246094 202.695312 L 756.40625 261.839844 L 708.125 229.144531 L 659.839844 261.839844 L 682.902344 202.695312 L 630 170 "/>
<path style="fill-rule:nonzero;fill:rgb(35%,70%,90%);fill-opacity:1;stroke-width:1;stroke-linecap:butt;stroke-linejoin:miter;stroke:rgb(0%,0%,0%);stroke-opacity:1;stroke-miterlimit:10;" d="M 910 170 C 910 125 835 125 835 170 C 835 215 910 222.5 910 260 C 910 222.5 985 215 985 170 C 985 125 910 125 910 170 "/>
<path style="fill-rule:nonzero;fill:rgb(33%,80%,11%);fill-opacity:1;stroke-width:1;stroke-linecap:butt;stroke-linejoin:miter;stroke:rgb(0%,0%,0%);stroke-opacity:1;stroke-miterlimit:10;" d="M 1010 170 L 1065.625 170 L 1088.125 117.097656 L 1110.625 170 L 1166.246094 170 L 1121.246094 202.695312 L 1136.40625 261.839844 L 1088.125 229.144531 L 1039.839844 261.839844 L 1062.902344 202.695312 L 1010 170 "/>
</g>
</svg>
