<?xml version="1.0" encoding="UTF-8"?>
<svg xmlns="http://www.w3.org/2000/svg" xmlns:xlink="http://www.w3.org/1999/xlink" width="1240pt" height="300pt" viewBox="0 0 1240 300" version="1.1">
<g id="surface1981">
<rect x="0" y="0" width="1240" height="300" style="fill:rgb(90%,90%,90%);fill-opacity:1;stroke:none;"/>
<path style="fill:none;stroke-width:5;stroke-linecap:butt;stroke-linejoin:miter;stroke:rgb(100%,0%,0%);stroke-opacity:1;stroke-miterlimit:10;" d="M 810 270 L 1000 270 L 1000 70 L 810 70 Z M 810 270 "/>
<path style="fill-rule:nonzero;fill:rgb(55%,14%,14%);fill-opacity:1;stroke-width:1;stroke-linecap:butt;stroke-linejoin:miter;stroke:rgb(0%,0%,0%);stroke-opacity:1;stroke-miterlimit:10;" d="M 126.667969 170 L 145.207031 170 L 152.707031 152.367188 L 160.207031 170 L 178.75 170 L 163.75 180.898438 L 168.800781 200.613281 L 152.707031 189.714844 L 136.613281 200.613281 L 144.300781 180.898438 L 126.667969 170 "/>
<path style="fill-rule:nonzero;fill:rgb(0%,0%,0%);fill-opacity:1;stroke-width:1;stroke-linecap:butt;stroke-linejoin:miter;stroke:rgb(0%,0%,0%);stroke-opacity:1;stroke-miterlimit:10;" d="M 335 170 L 347.359375 170 L 352.359375 158.246094 L 357.359375 170 L 369.722656 170 L 359.722656 177.265625 L 363.089844 190.410156 L 352.359375 183.144531 L 341.632813 190.410156 L 346.753906 177.265625 L 335 170 "/>
<path style="fill-rule:nonzero;fill:rgb(55%,14%,14%);fill-opacity:1;stroke-width:1;stroke-linecap:butt;stroke-linejoin:miter;stroke:rgb(0%,0%,0%);stroke-opacity:1;stroke-miterlimit:10;" d="M 525 170 L 537.359375 170 L 542.359375 158.246094 L 547.359375 170 L 559.722656 170 L 549.722656 177.265625 L 553.089844 190.410156 L 542.359375 183.144531 L 531.632813 190.410156 L 536.753906 177.265625 L 525 170 "/>
<path style="fill-rule:nonzero;fill:rgb(55%,14%,14%);fill-opacity:1;stroke-width:1;stroke-linecap:butt;stroke-linejoin:miter;stroke:rgb(0%,0%,0%);stroke-opacity:1;stroke-miterlimit:10;" d="M 630 150 L 685.625 150 L 708.125 97.097656 L 730.625 150 L 786.246094 150 L 741.246094 182.695313 L 756.40625 241.839844 L 708.125 209.144531 L 659.839844 241.839844 L 682.902344 182.695313 L 630 150 "/>
<path style="fill-rule:nonzero;fill:rgb(55%,14%,14%);fill-opacity:1;stroke-width:1;stroke-linecap:butt;stroke-linejoin:miter;stroke:rgb(0%,0%,0%);stroke-opacity:1;stroke-miterlimit:10;" d="M 975 170 C 975 208.660156 943.660156 240 905 240 C 866.339844 240 835 208.660156 835 170 C 835 131.339844 866.339844 100 905 100 C 943.660156 100 975 131.339844 975 170 "/>
<path style="fill-rule:nonzero;fill:rgb(55%,14%,14%);fill-opacity:1;stroke-width:1;stroke-linecap:butt;stroke-linejoin:miter;stroke:rgb(0%,0%,0%);stroke-opacity:1;stroke-miterlimit:10;" d="M 1095 170 L 1101.179688 170 L 1103.679688 164.121094 L 1106.179688 170 L 1112.359375 170 L 1107.359375 173.632813 L 1109.046875 180.203125 L 1103.679688 176.570313 L 1098.316406 180.203125 L 1100.878906 173.632813 L 1095 170 "/>
</g>
</svg>
