<?xml version="1.0" encoding="UTF-8"?>
<svg xmlns="http://www.w3.org/2000/svg" xmlns:xlink="http://www.w3.org/1999/xlink" width="1240pt" height="300pt" viewBox="0 0 1240 300" version="1.1">
<g id="surface146">
<rect x="0" y="0" width="1240" height="300" style="fill:rgb(90%,90%,90%);fill-opacity:1;stroke:none;"/>
<path style=" stroke:none;fill-rule:nonzero;fill:rgb(90%,50%,50%);fill-opacity:0.5;" d="M 430 270 L 620 270 L 620 30 L 430 30 Z M 430 270 "/>
<path style="fill-rule:nonzero;fill:rgb(65%,16%,16%);fill-opacity:1;stroke-width:1;stroke-linecap:butt;stroke-linejoin:miter;stroke:rgb(0%,0%,0%);stroke-opacity:1;stroke-miterlimit:10;" d="M 60 170 L 121.804688 170 L 146.804688 111.222656 L 171.804688 170 L 233.605469 170 L 183.605469 206.328125 L 200.449219 272.042969 L 146.804688 235.714844 L 93.15625 272.042969 L 118.777344 206.328125 L 60 170 "/>
<path style="fill-rule:nonzero;fill:rgb(65%,16%,16%);fill-opacity:1;stroke-width:1;stroke-linecap:butt;stroke-linejoin:miter;stroke:rgb(0%,0%,0%);stroke-opacity:1;stroke-miterlimit:10;" d="M 250 170 L 262.359375 170 L 267.359375 158.246094 L 272.359375 170 L 284.722656 170 L 274.722656 177.265625 L 278.089844 190.410156 L 267.359375 183.144531 L 256.632812 190.410156 L 261.753906 177.265625 L 250 170 "/>
<path style="fill-rule:nonzero;fill:rgb(55%,51%,53%);fill-opacity:1;stroke-width:1;stroke-linecap:butt;stroke-linejoin:miter;stroke:rgb(0%,0%,0%);stroke-opacity:1;stroke-miterlimit:10;" d="M 440 170 L 458.542969 170 L 466.042969 152.367188 L 473.542969 170 L 492.082031 170 L 477.082031 180.898438 L 482.136719 200.613281 L 466.042969 189.714844 L 449.945312 200.613281 L 457.632812 180.898438 L 440 170 "/>
<path style="fill-rule:nonzero;fill:rgb(65%,16%,16%);fill-opacity:1;stroke-width:1;stroke-linecap:butt;stroke-linejoin:miter;stroke:rgb(0%,0%,0%);stroke-opacity:1;stroke-miterlimit:10;" d="M 715 154 L 731 170 L 715 186 L 699 170 Z M 715 154 "/>
<path style="fill-rule:nonzero;fill:rgb(65%,16%,16%);fill-opacity:1;stroke-width:1;stroke-linecap:butt;stroke-linejoin:miter;stroke:rgb(0%,0%,0%);stroke-opacity:1;stroke-miterlimit:10;" d="M 820 170 L 838.542969 170 L 846.042969 152.367188 L 853.542969 170 L 872.082031 170 L 857.082031 180.898438 L 862.136719 200.613281 L 846.042969 189.714844 L 829.945312 200.613281 L 837.632812 180.898438 L 820 170 "/>
<path style="fill-rule:nonzero;fill:rgb(65%,16%,16%);fill-opacity:1;stroke-width:1;stroke-linecap:butt;stroke-linejoin:miter;stroke:rgb(0%,0%,0%);stroke-opacity:1;stroke-miterlimit:10;" d="M 1010 170 L 1016.179688 170 L 1018.679688 164.121094 L 1021.179688 170 L 1027.359375 170 L 1022.359375 173.632812 L 1024.046875 180.203125 L 1018.679688 176.570312 L 1013.316406 180.203125 L 1015.878906 173.632812 L 1010 170 "/>
</g>
</svg>
