<?xml version="1.0" encoding="UTF-8"?>
<svg xmlns="http://www.w3.org/2000/svg" xmlns:xlink="http://www.w3.org/1999/xlink" width="1240pt" height="300pt" viewBox="0 0 1240 300" version="1.1">
<g id="surface3241">
<rect x="0" y="0" width="1240" height="300" style="fill:rgb(90%,90%,90%);fill-opacity:1;stroke:none;"/>
<path style=" stroke:none;fill-rule:nonzero;fill:rgb(90%,50%,50%);fill-opacity:0.5;" d="M 1000 270 L 1190 270 L 1190 30 L 1000 30 Z M 1000 270 "/>
<path style="fill:none;stroke-width:15;stroke-linecap:butt;stroke-linejoin:miter;stroke:rgb(35%,70%,90%);stroke-opacity:1;stroke-miterlimit:10;" d="M 60 220 C 68.289063 178.183594 98.96875 178.183594 107.257813 136.367188 "/>
<path style="fill:none;stroke-width:15;stroke-linecap:butt;stroke-linejoin:miter;stroke:rgb(35%,70%,90%);stroke-opacity:1;stroke-miterlimit:10;" d="M 250 220 C 251.261719 203.304688 268.105469 203.304688 269.367188 186.609375 "/>
<path style="fill:none;stroke-width:15;stroke-linecap:butt;stroke-linejoin:miter;stroke:rgb(50%,50%,50%);stroke-opacity:1;stroke-miterlimit:10;" d="M 440 220 C 443.347656 196.65625 465.050781 196.65625 468.398438 173.316406 "/>
<path style="fill:none;stroke-width:15;stroke-linecap:butt;stroke-linejoin:miter;stroke:rgb(50%,50%,50%);stroke-opacity:1;stroke-miterlimit:10;" d="M 630 220 C 633.742188 203.554688 646.003906 203.554688 649.742188 187.105469 "/>
<path style="fill:none;stroke-width:15;stroke-linecap:butt;stroke-linejoin:miter;stroke:rgb(50%,50%,50%);stroke-opacity:1;stroke-miterlimit:10;" d="M 820 220 C 832.066406 211.640625 836.292969 211.640625 848.363281 203.28125 "/>
<path style="fill:none;stroke-width:15;stroke-linecap:butt;stroke-linejoin:miter;stroke:rgb(35%,70%,90%);stroke-opacity:1;stroke-miterlimit:10;" d="M 1010 220 C 1048.484375 156.265625 1079.796875 156.265625 1118.28125 92.53125 "/>
</g>
</svg>
