<?xml version="1.0" encoding="UTF-8"?>
<svg xmlns="http://www.w3.org/2000/svg" xmlns:xlink="http://www.w3.org/1999/xlink" width="1240pt" height="300pt" viewBox="0 0 1240 300" version="1.1">
<g id="surface1396">
<rect x="0" y="0" width="1240" height="300" style="fill:rgb(90%,90%,90%);fill-opacity:1;stroke:none;"/>
<path style=" stroke:none;fill-rule:nonzero;fill:rgb(90%,50%,50%);fill-opacity:0.5;" d="M 430 270 L 620 270 L 620 30 L 430 30 Z M 430 270 "/>
<path style=" stroke:none;fill-rule:nonzero;fill:rgb(0%,0%,0%);fill-opacity:1;" d="M 100 250 L 190 250 L 190 235 L 100 235 Z M 100 235 L 190 235 L 190 199.246094 L 100 199.246094 Z M 100 235 "/>
<path style=" stroke:none;fill-rule:nonzero;fill:rgb(80%,40%,0%);fill-opacity:1;" d="M 163 250 L 176.5 250 L 176.5 235 L 163 235 Z M 163 250 "/>
<path style=" stroke:none;fill-rule:nonzero;fill:rgb(80%,20%,20%);fill-opacity:0.9;" d="M 100 199.246094 L 145 169.246094 L 190 199.246094 "/>
<path style=" stroke:none;fill-rule:nonzero;fill:rgb(0%,0%,0%);fill-opacity:1;" d="M 290 250 L 380 250 L 380 235 L 290 235 Z M 290 235 L 380 235 L 380 211.609375 L 290 211.609375 Z M 290 235 "/>
<path style=" stroke:none;fill-rule:nonzero;fill:rgb(80%,40%,0%);fill-opacity:1;" d="M 353 250 L 366.5 250 L 366.5 235 L 353 235 Z M 353 250 "/>
<path style=" stroke:none;fill-rule:nonzero;fill:rgb(80%,20%,20%);fill-opacity:0.9;" d="M 290 211.609375 L 335 181.609375 L 380 211.609375 "/>
<path style=" stroke:none;fill-rule:nonzero;fill:rgb(0%,0%,0%);fill-opacity:1;" d="M 480 250 L 570 250 L 570 235 L 480 235 Z M 480 235 L 570 235 L 570 164.953125 L 480 164.953125 Z M 480 235 "/>
<path style=" stroke:none;fill-rule:nonzero;fill:rgb(80%,40%,0%);fill-opacity:1;" d="M 543 250 L 556.5 250 L 556.5 235 L 543 235 Z M 543 250 "/>
<path style=" stroke:none;fill-rule:nonzero;fill:rgb(80%,20%,20%);fill-opacity:0.9;" d="M 480 164.953125 L 525 134.953125 L 570 164.953125 "/>
<path style=" stroke:none;fill-rule:nonzero;fill:rgb(0%,0%,0%);fill-opacity:1;" d="M 670 250 L 760 250 L 760 235 L 670 235 Z M 670 235 L 760 235 L 760 214.957031 L 670 214.957031 Z M 670 235 "/>
<path style=" stroke:none;fill-rule:nonzero;fill:rgb(80%,40%,0%);fill-opacity:1;" d="M 733 250 L 746.5 250 L 746.5 235 L 733 235 Z M 733 250 "/>
<path style=" stroke:none;fill-rule:nonzero;fill:rgb(80%,20%,20%);fill-opacity:0.9;" d="M 670 214.957031 L 715 184.957031 L 760 214.957031 "/>
<path style=" stroke:none;fill-rule:nonzero;fill:rgb(0%,0%,0%);fill-opacity:1;" d="M 860 250 L 950 250 L 950 235 L 860 235 Z M 860 235 L 950 235 L 950 136.925781 L 860 136.925781 Z M 860 235 "/>
<path style=" stroke:none;fill-rule:nonzero;fill:rgb(80%,40%,0%);fill-opacity:1;" d="M 923 250 L 936.5 250 L 936.5 235 L 923 235 Z M 923 250 "/>
<path style=" stroke:none;fill-rule:nonzero;fill:rgb(80%,20%,20%);fill-opacity:0.9;" d="M 860 136.925781 L 905 126.925781 L 950 136.925781 "/>
<path style=" stroke:none;fill-rule:nonzero;fill:rgb(0%,0%,0%);fill-opacity:1;" d="M 1050 250 L 1140 250 L 1140 235 L 1050 235 Z M 1050 235 L 1140 235 L 1140 202.609375 L 1050 202.609375 Z M 1050 235 "/>
<path style=" stroke:none;fill-rule:nonzero;fill:rgb(80%,40%,0%);fill-opacity:1;" d="M 1113 250 L 1126.5 250 L 1126.5 235 L 1113 235 Z M 1113 250 "/>
<path style=" stroke:none;fill-rule:nonzero;fill:rgb(80%,20%,20%);fill-opacity:0.9;" d="M 1050 202.609375 L 1095 192.609375 L 1140 202.609375 "/>
</g>
</svg>
