<?xml version="1.0" encoding="UTF-8"?>
<svg xmlns="http://www.w3.org/2000/svg" xmlns:xlink="http://www.w3.org/1999/xlink" width="1240pt" height="300pt" viewBox="0 0 1240 300" version="1.1">
<g id="surface3211">
<rect x="0" y="0" width="1240" height="300" style="fill:rgb(90%,90%,90%);fill-opacity:1;stroke:none;"/>
<path style=" stroke:none;fill-rule:nonzero;fill:rgb(90%,50%,50%);fill-opacity:0.5;" d="M 50 270 L 240 270 L 240 30 L 50 30 Z M 50 270 "/>
<path style=" stroke:none;fill-rule:nonzero;fill:rgb(50%,50%,50%);fill-opacity:1;" d="M 100 250 L 190 250 L 190 235 L 100 235 Z M 100 235 L 190 235 L 190 149.082031 L 100 149.082031 Z M 100 235 "/>
<path style=" stroke:none;fill-rule:nonzero;fill:rgb(80%,40%,0%);fill-opacity:1;" d="M 163 250 L 176.5 250 L 176.5 235 L 163 235 Z M 163 250 "/>
<path style=" stroke:none;fill-rule:nonzero;fill:rgb(80%,20%,20%);fill-opacity:0.9;" d="M 100 149.082031 L 145 139.082031 L 190 149.082031 "/>
<path style=" stroke:none;fill-rule:nonzero;fill:rgb(50%,50%,50%);fill-opacity:1;" d="M 290 250 L 380 250 L 380 235 L 290 235 Z M 290 235 L 380 235 L 380 200.734375 L 290 200.734375 Z M 290 235 "/>
<path style=" stroke:none;fill-rule:nonzero;fill:rgb(80%,40%,0%);fill-opacity:1;" d="M 353 250 L 366.5 250 L 366.5 235 L 353 235 Z M 353 250 "/>
<path style=" stroke:none;fill-rule:nonzero;fill:rgb(80%,20%,20%);fill-opacity:0.9;" d="M 290 200.734375 L 335 170.734375 L 380 200.734375 "/>
<path style=" stroke:none;fill-rule:nonzero;fill:rgb(50%,50%,50%);fill-opacity:1;" d="M 480 250 L 570 250 L 570 235 L 480 235 Z M 480 235 L 570 235 L 570 192.570313 L 480 192.570313 Z M 480 235 "/>
<path style=" stroke:none;fill-rule:nonzero;fill:rgb(80%,40%,0%);fill-opacity:1;" d="M 543 250 L 556.5 250 L 556.5 235 L 543 235 Z M 543 250 "/>
<path style=" stroke:none;fill-rule:nonzero;fill:rgb(80%,20%,20%);fill-opacity:0.9;" d="M 480 192.570313 L 525 182.570313 L 570 192.570313 "/>
<path style=" stroke:none;fill-rule:nonzero;fill:rgb(35%,70%,90%);fill-opacity:1;" d="M 670 250 L 760 250 L 760 235 L 670 235 Z M 670 235 L 760 235 L 760 208.363281 L 670 208.363281 Z M 670 235 "/>
<path style=" stroke:none;fill-rule:nonzero;fill:rgb(80%,40%,0%);fill-opacity:1;" d="M 733 250 L 746.5 250 L 746.5 235 L 733 235 Z M 733 250 "/>
<path style=" stroke:none;fill-rule:nonzero;fill:rgb(80%,20%,20%);fill-opacity:0.9;" d="M 670 208.363281 L 715 198.363281 L 760 208.363281 "/>
<path style=" stroke:none;fill-rule:nonzero;fill:rgb(35%,70%,90%);fill-opacity:1;" d="M 860 250 L 950 250 L 950 235 L 860 235 Z M 860 235 L 950 235 L 950 221.183594 L 860 221.183594 Z M 860 235 "/>
<path style=" stroke:none;fill-rule:nonzero;fill:rgb(80%,40%,0%);fill-opacity:1;" d="M 923 250 L 936.5 250 L 936.5 235 L 923 235 Z M 923 250 "/>
<path style=" stroke:none;fill-rule:nonzero;fill:rgb(80%,20%,20%);fill-opacity:0.9;" d="M 860 221.183594 L 905 211.183594 L 950 221.183594 "/>
<path style=" stroke:none;fill-rule:nonzero;fill:rgb(35%,70%,90%);fill-opacity:1;" d="M 1050 250 L 1140 250 L 1140 235 L 1050 235 Z M 1050 235 L 1140 235 L 1140 200.089844 L 1050 200.089844 Z M 1050 235 "/>
<path style=" stroke:none;fill-rule:nonzero;fill:rgb(80%,40%,0%);fill-opacity:1;" d="M 1113 250 L 1126.5 250 L 1126.5 235 L 1113 235 Z M 1113 250 "/>
<path style=" stroke:none;fill-rule:nonzero;fill:rgb(80%,20%,20%);fill-opacity:0.9;" d="M 1050 200.089844 L 1095 190.089844 L 1140 200.089844 "/>
</g>
</svg>
