<?xml version="1.0" encoding="UTF-8"?>
<svg xmlns="http://www.w3.org/2000/svg" xmlns:xlink="http://www.w3.org/1999/xlink" width="1240pt" height="300pt" viewBox="0 0 1240 300" version="1.1">
<g id="surface2291">
<rect x="0" y="0" width="1240" height="300" style="fill:rgb(90%,90%,90%);fill-opacity:1;stroke:none;"/>
<path style=" stroke:none;fill-rule:nonzero;fill:rgb(90%,50%,50%);fill-opacity:0.5;" d="M 620 270 L 810 270 L 810 30 L 620 30 Z M 620 270 "/>
<path style=" stroke:none;fill-rule:nonzero;fill:rgb(90%,65%,0%);fill-opacity:1;" d="M 100 250 L 190 250 L 190 235 L 100 235 Z M 100 235 L 190 235 L 190 175.628906 L 100 175.628906 Z M 100 235 "/>
<path style=" stroke:none;fill-rule:nonzero;fill:rgb(80%,40%,0%);fill-opacity:1;" d="M 163 250 L 176.5 250 L 176.5 235 L 163 235 Z M 163 250 "/>
<path style=" stroke:none;fill-rule:nonzero;fill:rgb(80%,20%,20%);fill-opacity:0.9;" d="M 100 175.628906 L 145 165.628906 L 190 175.628906 "/>
<path style=" stroke:none;fill-rule:nonzero;fill:rgb(90%,65%,0%);fill-opacity:1;" d="M 290 250 L 380 250 L 380 235 L 290 235 Z M 290 235 L 380 235 L 380 166.78125 L 290 166.78125 Z M 290 235 "/>
<path style=" stroke:none;fill-rule:nonzero;fill:rgb(80%,40%,0%);fill-opacity:1;" d="M 353 250 L 366.5 250 L 366.5 235 L 353 235 Z M 353 250 "/>
<path style=" stroke:none;fill-rule:nonzero;fill:rgb(80%,20%,20%);fill-opacity:0.9;" d="M 290 166.78125 L 335 156.78125 L 380 166.78125 "/>
<path style=" stroke:none;fill-rule:nonzero;fill:rgb(90%,65%,0%);fill-opacity:1;" d="M 480 250 L 570 250 L 570 235 L 480 235 Z M 480 235 L 570 235 L 570 219.15625 L 480 219.15625 Z M 480 235 "/>
<path style=" stroke:none;fill-rule:nonzero;fill:rgb(80%,40%,0%);fill-opacity:1;" d="M 543 250 L 556.5 250 L 556.5 235 L 543 235 Z M 543 250 "/>
<path style=" stroke:none;fill-rule:nonzero;fill:rgb(80%,20%,20%);fill-opacity:0.9;" d="M 480 219.15625 L 525 209.15625 L 570 219.15625 "/>
<path style=" stroke:none;fill-rule:nonzero;fill:rgb(50%,50%,50%);fill-opacity:1;" d="M 670 250 L 760 250 L 760 235 L 670 235 Z M 670 235 L 760 235 L 760 150.601563 L 670 150.601563 Z M 670 235 "/>
<path style=" stroke:none;fill-rule:nonzero;fill:rgb(80%,40%,0%);fill-opacity:1;" d="M 733 250 L 746.5 250 L 746.5 235 L 733 235 Z M 733 250 "/>
<path style=" stroke:none;fill-rule:nonzero;fill:rgb(80%,20%,20%);fill-opacity:0.9;" d="M 670 150.601563 L 715 140.601563 L 760 150.601563 "/>
<path style=" stroke:none;fill-rule:nonzero;fill:rgb(90%,65%,0%);fill-opacity:1;" d="M 860 250 L 950 250 L 950 235 L 860 235 Z M 860 235 L 950 235 L 950 176.582031 L 860 176.582031 Z M 860 235 "/>
<path style=" stroke:none;fill-rule:nonzero;fill:rgb(80%,40%,0%);fill-opacity:1;" d="M 923 250 L 936.5 250 L 936.5 235 L 923 235 Z M 923 250 "/>
<path style=" stroke:none;fill-rule:nonzero;fill:rgb(80%,20%,20%);fill-opacity:0.9;" d="M 860 176.582031 L 905 166.582031 L 950 176.582031 "/>
<path style=" stroke:none;fill-rule:nonzero;fill:rgb(90%,65%,0%);fill-opacity:1;" d="M 1050 250 L 1140 250 L 1140 235 L 1050 235 Z M 1050 235 L 1140 235 L 1140 192.378906 L 1050 192.378906 Z M 1050 235 "/>
<path style=" stroke:none;fill-rule:nonzero;fill:rgb(80%,40%,0%);fill-opacity:1;" d="M 1113 250 L 1126.5 250 L 1126.5 235 L 1113 235 Z M 1113 250 "/>
<path style=" stroke:none;fill-rule:nonzero;fill:rgb(80%,20%,20%);fill-opacity:0.9;" d="M 1050 192.378906 L 1095 182.378906 L 1140 192.378906 "/>
</g>
</svg>
