<?xml version="1.0" encoding="UTF-8"?>
<svg xmlns="http://www.w3.org/2000/svg" xmlns:xlink="http://www.w3.org/1999/xlink" width="1240pt" height="300pt" viewBox="0 0 1240 300" version="1.1">
<g id="surface371">
<rect x="0" y="0" width="1240" height="300" style="fill:rgb(90%,90%,90%);fill-opacity:1;stroke:none;"/>
<path style=" stroke:none;fill-rule:nonzero;fill:rgb(90%,50%,50%);fill-opacity:0.5;" d="M 1000 270 L 1190 270 L 1190 30 L 1000 30 Z M 1000 270 "/>
<path style="fill-rule:nonzero;fill:rgb(33%,80%,11%);fill-opacity:1;stroke-width:1;stroke-linecap:butt;stroke-linejoin:miter;stroke:rgb(0%,0%,0%);stroke-opacity:1;stroke-miterlimit:10;" d="M 150 170 C 150 156.5 127.5 156.5 127.5 170 C 127.5 183.5 150 185.75 150 197 C 150 185.75 172.5 183.5 172.5 170 C 172.5 156.5 150 156.5 150 170 "/>
<path style="fill-rule:nonzero;fill:rgb(33%,80%,11%);fill-opacity:1;stroke-width:1;stroke-linecap:butt;stroke-linejoin:miter;stroke:rgb(0%,0%,0%);stroke-opacity:1;stroke-miterlimit:10;" d="M 335 146 L 359 170 L 335 194 L 311 170 Z M 335 146 "/>
<path style="fill-rule:nonzero;fill:rgb(33%,80%,11%);fill-opacity:1;stroke-width:1;stroke-linecap:butt;stroke-linejoin:miter;stroke:rgb(0%,0%,0%);stroke-opacity:1;stroke-miterlimit:10;" d="M 530 170 C 530 165.5 522.5 165.5 522.5 170 C 522.5 174.5 530 175.25 530 179 C 530 175.25 537.5 174.5 537.5 170 C 537.5 165.5 530 165.5 530 170 "/>
<path style="fill-rule:nonzero;fill:rgb(33%,80%,11%);fill-opacity:1;stroke-width:1;stroke-linecap:butt;stroke-linejoin:miter;stroke:rgb(0%,0%,0%);stroke-opacity:1;stroke-miterlimit:10;" d="M 720 170 C 720 156.5 697.5 156.5 697.5 170 C 697.5 183.5 720 185.75 720 197 C 720 185.75 742.5 183.5 742.5 170 C 742.5 156.5 720 156.5 720 170 "/>
<path style="fill-rule:nonzero;fill:rgb(33%,80%,11%);fill-opacity:1;stroke-width:1;stroke-linecap:butt;stroke-linejoin:miter;stroke:rgb(0%,0%,0%);stroke-opacity:1;stroke-miterlimit:10;" d="M 910 170 C 910 156.5 887.5 156.5 887.5 170 C 887.5 183.5 910 185.75 910 197 C 910 185.75 932.5 183.5 932.5 170 C 932.5 156.5 910 156.5 910 170 "/>
<path style="fill-rule:nonzero;fill:rgb(0%,0%,0%);fill-opacity:1;stroke-width:1;stroke-linecap:butt;stroke-linejoin:miter;stroke:rgb(0%,0%,0%);stroke-opacity:1;stroke-miterlimit:10;" d="M 1100 170 C 1100 156.5 1077.5 156.5 1077.5 170 C 1077.5 183.5 1100 185.75 1100 197 C 1100 185.75 1122.5 183.5 1122.5 170 C 1122.5 156.5 1100 156.5 1100 170 "/>
</g>
</svg>
