<?xml version="1.0" encoding="UTF-8"?>
<svg xmlns="http://www.w3.org/2000/svg" xmlns:xlink="http://www.w3.org/1999/xlink" width="1240pt" height="300pt" viewBox="0 0 1240 300" version="1.1">
<g id="surface1091">
<rect x="0" y="0" width="1240" height="300" style="fill:rgb(90%,90%,90%);fill-opacity:1;stroke:none;"/>
<path style="fill:none;stroke-width:5;stroke-linecap:butt;stroke-linejoin:miter;stroke:rgb(100%,0%,0%);stroke-opacity:1;stroke-miterlimit:10;" d="M 810 270 L 1000 270 L 1000 70 L 810 70 Z M 810 270 "/>
<path style="fill-rule:nonzero;fill:rgb(55%,51%,53%);fill-opacity:1;stroke-width:1;stroke-linecap:butt;stroke-linejoin:miter;stroke:rgb(0%,0%,0%);stroke-opacity:1;stroke-miterlimit:10;" d="M 145 170 C 145 161 130 161 130 170 C 130 179 145 180.5 145 188 C 145 180.5 160 179 160 170 C 160 161 145 161 145 170 "/>
<path style="fill-rule:nonzero;fill:rgb(55%,51%,53%);fill-opacity:1;stroke-width:1;stroke-linecap:butt;stroke-linejoin:miter;stroke:rgb(0%,0%,0%);stroke-opacity:1;stroke-miterlimit:10;" d="M 335 150 C 335 109.5 267.5 109.5 267.5 150 C 267.5 190.5 335 197.25 335 231 C 335 197.25 402.5 190.5 402.5 150 C 402.5 109.5 335 109.5 335 150 "/>
<path style="fill-rule:nonzero;fill:rgb(55%,14%,14%);fill-opacity:1;stroke-width:1;stroke-linecap:butt;stroke-linejoin:miter;stroke:rgb(0%,0%,0%);stroke-opacity:1;stroke-miterlimit:10;" d="M 535.5 170 C 535.5 175.800781 530.800781 180.5 525 180.5 C 519.199219 180.5 514.5 175.800781 514.5 170 C 514.5 164.199219 519.199219 159.5 525 159.5 C 530.800781 159.5 535.5 164.199219 535.5 170 "/>
<path style="fill-rule:nonzero;fill:rgb(55%,14%,14%);fill-opacity:1;stroke-width:1;stroke-linecap:butt;stroke-linejoin:miter;stroke:rgb(0%,0%,0%);stroke-opacity:1;stroke-miterlimit:10;" d="M 746.5 170 C 746.5 187.398438 732.398438 201.5 715 201.5 C 697.601563 201.5 683.5 187.398438 683.5 170 C 683.5 152.601563 697.601563 138.5 715 138.5 C 732.398438 138.5 746.5 152.601563 746.5 170 "/>
<path style="fill-rule:nonzero;fill:rgb(55%,14%,14%);fill-opacity:1;stroke-width:1;stroke-linecap:butt;stroke-linejoin:miter;stroke:rgb(0%,0%,0%);stroke-opacity:1;stroke-miterlimit:10;" d="M 975 170 C 975 208.660156 943.660156 240 905 240 C 866.339844 240 835 208.660156 835 170 C 835 131.339844 866.339844 100 905 100 C 943.660156 100 975 131.339844 975 170 "/>
<path style="fill-rule:nonzero;fill:rgb(55%,14%,14%);fill-opacity:1;stroke-width:1;stroke-linecap:butt;stroke-linejoin:miter;stroke:rgb(0%,0%,0%);stroke-opacity:1;stroke-miterlimit:10;" d="M 1095 150 C 1095 109.5 1027.5 109.5 1027.5 150 C 1027.5 190.5 1095 197.25 1095 231 C 1095 197.25 1162.5 190.5 1162.5 150 C 1162.5 109.5 1095 109.5 1095 150 "/>
</g>
</svg>
